<?xml version="1.0" encoding="UTF-8" standalone="no"?>
<!DOCTYPE svg PUBLIC "-//W3C//DTD SVG 1.1//EN"
 "http://www.w3.org/Graphics/SVG/1.1/DTD/svg11.dtd">
<!-- Generated by graphviz version 14.0.2 (20251019.1705)
 -->
<!-- Title: src/recipe/header/graph.hpp Pages: 1 -->
<svg width="353pt" height="140pt"
 viewBox="0.00 0.00 353.00 140.00" xmlns="http://www.w3.org/2000/svg" xmlns:xlink="http://www.w3.org/1999/xlink">
<g id="graph0" class="graph" transform="scale(1 1) rotate(0) translate(4 136)">
<title>src/recipe/header/graph.hpp</title>
<!-- Node1 -->
<g id="Node000001" class="node">
<title>Node1</title>
<g id="a_Node000001"><a xlink:title="Graph implementation for recipe dependency tracking (C++ version).">
<polygon fill="#999999" stroke="#666666" points="250.12,-132 113.38,-132 113.38,-112 250.12,-112 250.12,-132"/>
<text xml:space="preserve" text-anchor="middle" x="181.75" y="-118.5" font-family="Helvetica,sans-Serif" font-size="10.00">src/recipe/header/graph.hpp</text>
</a>
</g>
</g>
<!-- Node2 -->
<g id="Node000002" class="node">
<title>Node2</title>
<g id="a_Node000002"><a xlink:title=" ">
<polygon fill="#e0e0e0" stroke="#999999" points="53.5,-20 0,-20 0,0 53.5,0 53.5,-20"/>
<text xml:space="preserve" text-anchor="middle" x="26.75" y="-6.5" font-family="Helvetica,sans-Serif" font-size="10.00">iostream</text>
</a>
</g>
</g>
<!-- Node1&#45;&gt;Node2 -->
<g id="edge1_Node000001_Node000002" class="edge">
<title>Node1&#45;&gt;Node2</title>
<g id="a_edge1_Node000001_Node000002"><a xlink:title=" ">
<path fill="none" stroke="#63b8ff" d="M168.49,-111.72C155.53,-102.64 135.26,-88.41 117.75,-76 94.23,-59.33 67.37,-40.13 48.97,-26.94"/>
<polygon fill="#63b8ff" stroke="#63b8ff" points="51.08,-24.15 40.92,-21.17 47.01,-29.84 51.08,-24.15"/>
</a>
</g>
</g>
<!-- Node3 -->
<g id="Node000003" class="node">
<title>Node3</title>
<g id="a_Node000003"><a xlink:title=" ">
<polygon fill="#e0e0e0" stroke="#999999" points="111.75,-20 71.75,-20 71.75,0 111.75,0 111.75,-20"/>
<text xml:space="preserve" text-anchor="middle" x="91.75" y="-6.5" font-family="Helvetica,sans-Serif" font-size="10.00">string</text>
</a>
</g>
</g>
<!-- Node1&#45;&gt;Node3 -->
<g id="edge2_Node000001_Node000003" class="edge">
<title>Node1&#45;&gt;Node3</title>
<g id="a_edge2_Node000001_Node000003"><a xlink:title=" ">
<path fill="none" stroke="#63b8ff" d="M170.91,-111.55C161.18,-102.81 146.78,-89.21 135.75,-76 123.48,-61.31 111.43,-43.17 103.05,-29.79"/>
<polygon fill="#63b8ff" stroke="#63b8ff" points="106.19,-28.22 97.98,-21.53 100.23,-31.88 106.19,-28.22"/>
</a>
</g>
</g>
<!-- Node4 -->
<g id="Node000004" class="node">
<title>Node4</title>
<g id="a_Node000004"><a xlink:title=" ">
<polygon fill="#e0e0e0" stroke="#999999" points="173.25,-20 130.25,-20 130.25,0 173.25,0 173.25,-20"/>
<text xml:space="preserve" text-anchor="middle" x="151.75" y="-6.5" font-family="Helvetica,sans-Serif" font-size="10.00">vector</text>
</a>
</g>
</g>
<!-- Node1&#45;&gt;Node4 -->
<g id="edge3_Node000001_Node000004" class="edge">
<title>Node1&#45;&gt;Node4</title>
<g id="a_edge3_Node000001_Node000004"><a xlink:title=" ">
<path fill="none" stroke="#63b8ff" d="M170.02,-111.72C160.63,-103.48 148.17,-90.53 142.75,-76 137.32,-61.45 140.23,-43.97 144.13,-30.81"/>
<polygon fill="#63b8ff" stroke="#63b8ff" points="147.36,-32.16 147.29,-21.57 140.74,-29.89 147.36,-32.16"/>
</a>
</g>
</g>
<!-- Node5 -->
<g id="Node000005" class="node">
<title>Node5</title>
<g id="a_Node000005"><a xlink:title=" ">
<polygon fill="#e0e0e0" stroke="#999999" points="242.38,-20 191.12,-20 191.12,0 242.38,0 242.38,-20"/>
<text xml:space="preserve" text-anchor="middle" x="216.75" y="-6.5" font-family="Helvetica,sans-Serif" font-size="10.00">memory</text>
</a>
</g>
</g>
<!-- Node1&#45;&gt;Node5 -->
<g id="edge4_Node000001_Node000005" class="edge">
<title>Node1&#45;&gt;Node5</title>
<g id="a_edge4_Node000001_Node000005"><a xlink:title=" ">
<path fill="none" stroke="#63b8ff" d="M193.78,-111.78C203.4,-103.59 216.18,-90.66 221.75,-76 227.18,-61.73 225.5,-44.45 222.69,-31.3"/>
<polygon fill="#63b8ff" stroke="#63b8ff" points="226.09,-30.47 220.23,-21.65 219.31,-32.2 226.09,-30.47"/>
</a>
</g>
</g>
<!-- Node6 -->
<g id="Node000006" class="node">
<title>Node6</title>
<g id="a_Node000006"><a xlink:title=" ">
<polygon fill="#e0e0e0" stroke="#999999" points="344.62,-76 306.88,-76 306.88,-56 344.62,-56 344.62,-76"/>
<text xml:space="preserve" text-anchor="middle" x="325.75" y="-62.5" font-family="Helvetica,sans-Serif" font-size="10.00">array</text>
</a>
</g>
</g>
<!-- Node1&#45;&gt;Node6 -->
<g id="edge5_Node000001_Node000006" class="edge">
<title>Node1&#45;&gt;Node6</title>
<g id="a_edge5_Node000001_Node000006"><a xlink:title=" ">
<path fill="none" stroke="#63b8ff" d="M206.83,-111.59C231.65,-102.29 269.64,-88.04 295.98,-78.16"/>
<polygon fill="#63b8ff" stroke="#63b8ff" points="296.93,-81.55 305.06,-74.76 294.47,-74.99 296.93,-81.55"/>
</a>
</g>
</g>
<!-- Node7 -->
<g id="Node000007" class="node">
<title>Node7</title>
<g id="a_Node000007"><a xlink:title=" ">
<polygon fill="#e0e0e0" stroke="#999999" points="316.62,-20 260.88,-20 260.88,0 316.62,0 316.62,-20"/>
<text xml:space="preserve" text-anchor="middle" x="288.75" y="-6.5" font-family="Helvetica,sans-Serif" font-size="10.00">algorithm</text>
</a>
</g>
</g>
<!-- Node1&#45;&gt;Node7 -->
<g id="edge6_Node000001_Node000007" class="edge">
<title>Node1&#45;&gt;Node7</title>
<g id="a_edge6_Node000001_Node000007"><a xlink:title=" ">
<path fill="none" stroke="#63b8ff" d="M194.91,-111.77C206.73,-103.17 224.25,-89.66 237.75,-76 252.05,-61.53 266.16,-43.14 275.9,-29.62"/>
<polygon fill="#63b8ff" stroke="#63b8ff" points="278.65,-31.79 281.56,-21.61 272.93,-27.76 278.65,-31.79"/>
</a>
</g>
</g>
<!-- Node8 -->
<g id="Node000008" class="node">
<title>Node8</title>
<g id="a_Node000008"><a xlink:href="recipe_8hpp.html" target="_top" xlink:title="Represents a Recipe entity in the Recipe &amp; Nutrition Tracker (C++ version).">
<polygon fill="white" stroke="#666666" points="212.25,-76 151.25,-76 151.25,-56 212.25,-56 212.25,-76"/>
<text xml:space="preserve" text-anchor="middle" x="181.75" y="-62.5" font-family="Helvetica,sans-Serif" font-size="10.00">recipe.hpp</text>
</a>
</g>
</g>
<!-- Node1&#45;&gt;Node8 -->
<g id="edge7_Node000001_Node000008" class="edge">
<title>Node1&#45;&gt;Node8</title>
<g id="a_edge7_Node000001_Node000008"><a xlink:title=" ">
<path fill="none" stroke="#63b8ff" d="M181.75,-111.59C181.75,-105.01 181.75,-95.96 181.75,-87.73"/>
<polygon fill="#63b8ff" stroke="#63b8ff" points="185.25,-87.81 181.75,-77.81 178.25,-87.81 185.25,-87.81"/>
</a>
</g>
</g>
<!-- Node8&#45;&gt;Node2 -->
<g id="edge8_Node000008_Node000002" class="edge">
<title>Node8&#45;&gt;Node2</title>
<g id="a_edge8_Node000008_Node000002"><a xlink:title=" ">
<path fill="none" stroke="#63b8ff" d="M154.75,-55.59C129.79,-46.9 92.45,-33.89 64.53,-24.16"/>
<polygon fill="#63b8ff" stroke="#63b8ff" points="65.98,-20.96 55.39,-20.98 63.68,-27.57 65.98,-20.96"/>
</a>
</g>
</g>
<!-- Node8&#45;&gt;Node3 -->
<g id="edge9_Node000008_Node000003" class="edge">
<title>Node8&#45;&gt;Node3</title>
<g id="a_edge9_Node000008_Node000003"><a xlink:title=" ">
<path fill="none" stroke="#63b8ff" d="M166.07,-55.59C152.61,-47.51 132.93,-35.71 117.21,-26.27"/>
<polygon fill="#63b8ff" stroke="#63b8ff" points="119.22,-23.4 108.85,-21.26 115.62,-29.4 119.22,-23.4"/>
</a>
</g>
</g>
<!-- Node8&#45;&gt;Node4 -->
<g id="edge10_Node000008_Node000004" class="edge">
<title>Node8&#45;&gt;Node4</title>
<g id="a_edge10_Node000008_Node000004"><a xlink:title=" ">
<path fill="none" stroke="#63b8ff" d="M176.52,-55.59C172.65,-48.63 167.24,-38.89 162.47,-30.29"/>
<polygon fill="#63b8ff" stroke="#63b8ff" points="165.57,-28.66 157.65,-21.62 159.45,-32.06 165.57,-28.66"/>
</a>
</g>
</g>
<!-- Node8&#45;&gt;Node5 -->
<g id="edge11_Node000008_Node000005" class="edge">
<title>Node8&#45;&gt;Node5</title>
<g id="a_edge11_Node000008_Node000005"><a xlink:title=" ">
<path fill="none" stroke="#63b8ff" d="M187.85,-55.59C192.46,-48.47 198.96,-38.45 204.62,-29.72"/>
<polygon fill="#63b8ff" stroke="#63b8ff" points="207.4,-31.86 209.9,-21.57 201.52,-28.06 207.4,-31.86"/>
</a>
</g>
</g>
<!-- Node8&#45;&gt;Node7 -->
<g id="edge12_Node000008_Node000007" class="edge">
<title>Node8&#45;&gt;Node7</title>
<g id="a_edge12_Node000008_Node000007"><a xlink:title=" ">
<path fill="none" stroke="#63b8ff" d="M200.39,-55.59C216.78,-47.32 240.91,-35.14 259.81,-25.6"/>
<polygon fill="#63b8ff" stroke="#63b8ff" points="261.26,-28.79 268.62,-21.16 258.11,-22.54 261.26,-28.79"/>
</a>
</g>
</g>
</g>
</svg>
