<?xml version="1.0" encoding="UTF-8" standalone="no"?>
<!DOCTYPE svg PUBLIC "-//W3C//DTD SVG 1.1//EN"
 "http://www.w3.org/Graphics/SVG/1.1/DTD/svg11.dtd">
<!-- Generated by graphviz version 14.0.2 (20251019.1705)
 -->
<!-- Title: src/menu.c Pages: 1 -->
<!--zoomable 252 -->

<svg id="main" version="1.1" xmlns="http://www.w3.org/2000/svg" xmlns:xlink="http://www.w3.org/1999/xlink" xml:space="preserve" onload="init(evt)">

<style type="text/css"><![CDATA[
.node, .edge {opacity: 0.7;}
.node.selected, .edge.selected {opacity: 1;}
.edge:hover path { stroke: red; }
.edge:hover polygon { stroke: red; fill: red; }
]]></style>

<defs>
  <circle id="rim" cx="0" cy="0" r="7"/>
  <circle id="rim2" cx="0" cy="0" r="3.5"/>
  <g id="zoomPlus">
    <use xlink:href="#rim" fill="#404040"><set attributeName="fill" to="#808080" begin="zoomplus.mouseover" end="zoomplus.mouseout"/></use>
    <path d="M-4,0h8M0,-4v8" fill="none" stroke="white" stroke-width="1.5" pointer-events="none"/>
  </g>
  <g id="zoomMin">
    <use xlink:href="#rim" fill="#404040"><set attributeName="fill" to="#808080" begin="zoomminus.mouseover" end="zoomminus.mouseout"/></use>
    <path d="M-4,0h8" fill="none" stroke="white" stroke-width="1.5" pointer-events="none"/>
  </g>
  <g id="arrowUp" transform="translate(30 24)">
    <use xlink:href="#rim"/>
    <path pointer-events="none" fill="none" stroke="white" stroke-width="1.5" d="M0,-3.0v7 M-2.5,-0.5L0,-3.0L2.5,-0.5"/>
  </g>
  <g id="arrowRight" transform="rotate(90) translate(36 -43)">
    <use xlink:href="#rim"/>
    <path pointer-events="none" fill="none" stroke="white" stroke-width="1.5" d="M0,-3.0v7 M-2.5,-0.5L0,-3.0L2.5,-0.5"/>
  </g>
  <g id="arrowDown" transform="rotate(180) translate(-30 -48)">
    <use xlink:href="#rim"/>
    <path pointer-events="none" fill="none" stroke="white" stroke-width="1.5" d="M0,-3.0v7 M-2.5,-0.5L0,-3.0L2.5,-0.5"/>
  </g>
  <g id="arrowLeft" transform="rotate(270) translate(-36 17)">
    <use xlink:href="#rim"/>
    <path pointer-events="none" fill="none" stroke="white" stroke-width="1.5" d="M0,-3.0v7 M-2.5,-0.5L0,-3.0L2.5,-0.5"/>
  </g>
  <g id="resetDef">
    <use xlink:href="#rim2" fill="#404040"><set attributeName="fill" to="#808080" begin="reset.mouseover" end="reset.mouseout"/></use>
  </g>
</defs>
<script type="application/ecmascript">
var viewWidth = 700;
var viewHeight = 252;
var sectionId = 'dynsection-0';
</script>
<script type="application/ecmascript" xlink:href="svg.min.js"/>
<svg id="graph" class="graph">
<g id="viewport">
<title>src/menu.c</title>
<!-- Node1 -->
<g id="Node000001" class="node">
<title>Node1</title>
<g id="a_Node000001"><a xlink:title="Menu system for Recipe &amp; Nutrition Tracker.">
<polygon fill="#999999" stroke="#666666" points="665.85,-244 601.1,-244 601.1,-224 665.85,-224 665.85,-244"/>
<text xml:space="preserve" text-anchor="middle" x="633.48" y="-230.5" font-family="Helvetica,sans-Serif" font-size="10.00">src/menu.c</text>
</a>
</g>
</g>
<!-- Node2 -->
<g id="Node000002" class="node">
<title>Node2</title>
<g id="a_Node000002"><a xlink:title=" ">
<polygon fill="#e0e0e0" stroke="#999999" points="126.1,-20 80.85,-20 80.85,0 126.1,0 126.1,-20"/>
<text xml:space="preserve" text-anchor="middle" x="103.48" y="-6.5" font-family="Helvetica,sans-Serif" font-size="10.00">stdio.h</text>
</a>
</g>
</g>
<!-- Node1&#45;&gt;Node2 -->
<g id="edge1_Node000001_Node000002" class="edge">
<title>Node1&#45;&gt;Node2</title>
<g id="a_edge1_Node000001_Node000002"><a xlink:title=" ">
<path fill="none" stroke="#63b8ff" d="M600.84,-233.07C483.18,-232.54 83.67,-223.93 6.48,-132 -6.73,-116.27 3.17,-78.32 20.48,-56 33.04,-39.8 53.13,-28.69 70.4,-21.56"/>
<polygon fill="#63b8ff" stroke="#63b8ff" points="71.19,-25.01 79.28,-18.17 68.69,-18.47 71.19,-25.01"/>
</a>
</g>
</g>
<!-- Node3 -->
<g id="Node000003" class="node">
<title>Node3</title>
<g id="a_Node000003"><a xlink:title=" ">
<polygon fill="#e0e0e0" stroke="#999999" points="315.23,-20 267.73,-20 267.73,0 315.23,0 315.23,-20"/>
<text xml:space="preserve" text-anchor="middle" x="291.48" y="-6.5" font-family="Helvetica,sans-Serif" font-size="10.00">stdlib.h</text>
</a>
</g>
</g>
<!-- Node1&#45;&gt;Node3 -->
<g id="edge2_Node000001_Node000003" class="edge">
<title>Node1&#45;&gt;Node3</title>
<g id="a_edge2_Node000001_Node000003"><a xlink:title=" ">
<path fill="none" stroke="#63b8ff" d="M647.42,-223.74C658.24,-215.7 672.53,-203 679.48,-188 693.7,-157.31 697.21,-142.91 683.48,-112 668.4,-78.07 655.15,-71.65 621.48,-56 569.7,-31.93 401.39,-18.22 327.18,-13.21"/>
<polygon fill="#63b8ff" stroke="#63b8ff" points="327.42,-9.71 317.21,-12.55 326.96,-16.7 327.42,-9.71"/>
</a>
</g>
</g>
<!-- Node4 -->
<g id="Node000004" class="node">
<title>Node4</title>
<g id="a_Node000004"><a xlink:title=" ">
<polygon fill="#e0e0e0" stroke="#999999" points="612.6,-76 564.35,-76 564.35,-56 612.6,-56 612.6,-76"/>
<text xml:space="preserve" text-anchor="middle" x="588.48" y="-62.5" font-family="Helvetica,sans-Serif" font-size="10.00">string.h</text>
</a>
</g>
</g>
<!-- Node1&#45;&gt;Node4 -->
<g id="edge3_Node000001_Node000004" class="edge">
<title>Node1&#45;&gt;Node4</title>
<g id="a_edge3_Node000001_Node000004"><a xlink:title=" ">
<path fill="none" stroke="#63b8ff" d="M640.65,-223.58C655.86,-202.35 688.26,-149.71 666.48,-112 657.11,-95.79 639.44,-84.89 623.28,-77.89"/>
<polygon fill="#63b8ff" stroke="#63b8ff" points="624.98,-74.8 614.39,-74.39 622.41,-81.31 624.98,-74.8"/>
</a>
</g>
</g>
<!-- Node5 -->
<g id="Node000005" class="node">
<title>Node5</title>
<g id="a_Node000005"><a xlink:title=" ">
<polygon fill="#e0e0e0" stroke="#999999" points="657.6,-132 609.35,-132 609.35,-112 657.6,-112 657.6,-132"/>
<text xml:space="preserve" text-anchor="middle" x="633.48" y="-118.5" font-family="Helvetica,sans-Serif" font-size="10.00">ctype.h</text>
</a>
</g>
</g>
<!-- Node1&#45;&gt;Node5 -->
<g id="edge4_Node000001_Node000005" class="edge">
<title>Node1&#45;&gt;Node5</title>
<g id="a_edge4_Node000001_Node000005"><a xlink:title=" ">
<path fill="none" stroke="#63b8ff" d="M633.48,-223.62C633.48,-206.01 633.48,-167.59 633.48,-143.65"/>
<polygon fill="#63b8ff" stroke="#63b8ff" points="636.98,-143.87 633.48,-133.87 629.98,-143.87 636.98,-143.87"/>
</a>
</g>
</g>
<!-- Node6 -->
<g id="Node000006" class="node">
<title>Node6</title>
<g id="a_Node000006"><a xlink:href="menu_8h.html" target="_top" xlink:title=" ">
<polygon fill="white" stroke="#666666" points="382.6,-188 334.35,-188 334.35,-168 382.6,-168 382.6,-188"/>
<text xml:space="preserve" text-anchor="middle" x="358.48" y="-174.5" font-family="Helvetica,sans-Serif" font-size="10.00">menu.h</text>
</a>
</g>
</g>
<!-- Node1&#45;&gt;Node6 -->
<g id="edge5_Node000001_Node000006" class="edge">
<title>Node1&#45;&gt;Node6</title>
<g id="a_edge5_Node000001_Node000006"><a xlink:title=" ">
<path fill="none" stroke="#63b8ff" d="M600.85,-226.59C548.89,-216.39 447.74,-196.53 394.01,-185.98"/>
<polygon fill="#63b8ff" stroke="#63b8ff" points="394.96,-182.6 384.47,-184.1 393.61,-189.47 394.96,-182.6"/>
</a>
</g>
</g>
<!-- Node6&#45;&gt;Node2 -->
<g id="edge30_Node000006_Node000002" class="edge">
<title>Node6&#45;&gt;Node2</title>
<g id="a_edge30_Node000006_Node000002"><a xlink:title=" ">
<path fill="none" stroke="#63b8ff" d="M333.98,-175.58C259.6,-171.03 40.24,-155.7 19.48,-132 -11.2,-96.99 44.22,-50.59 78.81,-26.7"/>
<polygon fill="#63b8ff" stroke="#63b8ff" points="80.72,-29.63 87.08,-21.16 76.83,-23.81 80.72,-29.63"/>
</a>
</g>
</g>
<!-- Node6&#45;&gt;Node5 -->
<g id="edge31_Node000006_Node000005" class="edge">
<title>Node6&#45;&gt;Node5</title>
<g id="a_edge31_Node000006_Node000005"><a xlink:title=" ">
<path fill="none" stroke="#63b8ff" d="M383,-173.13C425.02,-166.34 513.68,-151.4 597.97,-132.43"/>
<polygon fill="#63b8ff" stroke="#63b8ff" points="598.58,-135.88 607.55,-130.25 597.02,-129.05 598.58,-135.88"/>
</a>
</g>
</g>
<!-- Node7 -->
<g id="Node000007" class="node">
<title>Node7</title>
<g id="a_Node000007"><a xlink:href="heap_8h.html" target="_top" xlink:title="Header file for the Min&#45;Heap data structure.">
<polygon fill="white" stroke="#666666" points="249.1,-132 203.85,-132 203.85,-112 249.1,-112 249.1,-132"/>
<text xml:space="preserve" text-anchor="middle" x="226.48" y="-118.5" font-family="Helvetica,sans-Serif" font-size="10.00">heap.h</text>
</a>
</g>
</g>
<!-- Node6&#45;&gt;Node7 -->
<g id="edge6_Node000006_Node000007" class="edge">
<title>Node6&#45;&gt;Node7</title>
<g id="a_edge6_Node000006_Node000007"><a xlink:title=" ">
<path fill="none" stroke="#63b8ff" d="M335.48,-167.59C314.57,-159.04 283.45,-146.31 259.81,-136.63"/>
<polygon fill="#63b8ff" stroke="#63b8ff" points="261.19,-133.42 250.61,-132.87 258.54,-139.9 261.19,-133.42"/>
</a>
</g>
</g>
<!-- Node8 -->
<g id="Node000008" class="node">
<title>Node8</title>
<g id="a_Node000008"><a xlink:href="recipe_8h.html" target="_top" xlink:title=" ">
<polygon fill="white" stroke="#666666" points="316.73,-76 266.23,-76 266.23,-56 316.73,-56 316.73,-76"/>
<text xml:space="preserve" text-anchor="middle" x="291.48" y="-62.5" font-family="Helvetica,sans-Serif" font-size="10.00">recipe.h</text>
</a>
</g>
</g>
<!-- Node6&#45;&gt;Node8 -->
<g id="edge29_Node000006_Node000008" class="edge">
<title>Node6&#45;&gt;Node8</title>
<g id="a_edge29_Node000006_Node000008"><a xlink:title=" ">
<path fill="none" stroke="#63b8ff" d="M382.96,-171.72C419.51,-162.7 481.71,-142.33 458.48,-112 442.72,-91.43 372.31,-78.15 328.1,-71.67"/>
<polygon fill="#63b8ff" stroke="#63b8ff" points="328.82,-68.24 318.43,-70.31 327.85,-75.17 328.82,-68.24"/>
</a>
</g>
</g>
<!-- Node9 -->
<g id="Node000009" class="node">
<title>Node9</title>
<g id="a_Node000009"><a xlink:href="stack_8h.html" target="_top" xlink:title=" ">
<polygon fill="white" stroke="#666666" points="315.6,-132 267.35,-132 267.35,-112 315.6,-112 315.6,-132"/>
<text xml:space="preserve" text-anchor="middle" x="291.48" y="-118.5" font-family="Helvetica,sans-Serif" font-size="10.00">stack.h</text>
</a>
</g>
</g>
<!-- Node6&#45;&gt;Node9 -->
<g id="edge10_Node000006_Node000009" class="edge">
<title>Node6&#45;&gt;Node9</title>
<g id="a_edge10_Node000006_Node000009"><a xlink:title=" ">
<path fill="none" stroke="#63b8ff" d="M346.81,-167.59C337.2,-159.85 323.35,-148.69 311.91,-139.47"/>
<polygon fill="#63b8ff" stroke="#63b8ff" points="314.17,-136.8 304.19,-133.25 309.78,-142.25 314.17,-136.8"/>
</a>
</g>
</g>
<!-- Node10 -->
<g id="Node000010" class="node">
<title>Node10</title>
<g id="a_Node000010"><a xlink:href="linked__list_8h.html" target="_top" xlink:title=" ">
<polygon fill="white" stroke="#666666" points="96.35,-132 28.6,-132 28.6,-112 96.35,-112 96.35,-132"/>
<text xml:space="preserve" text-anchor="middle" x="62.48" y="-118.5" font-family="Helvetica,sans-Serif" font-size="10.00">linked_list.h</text>
</a>
</g>
</g>
<!-- Node6&#45;&gt;Node10 -->
<g id="edge12_Node000006_Node000010" class="edge">
<title>Node6&#45;&gt;Node10</title>
<g id="a_edge12_Node000006_Node000010"><a xlink:title=" ">
<path fill="none" stroke="#63b8ff" d="M334.01,-172.9C290.6,-165.58 197.03,-149.54 107.86,-132.41"/>
<polygon fill="#63b8ff" stroke="#63b8ff" points="108.69,-129.01 98.21,-130.55 107.37,-135.88 108.69,-129.01"/>
</a>
</g>
</g>
<!-- Node11 -->
<g id="Node000011" class="node">
<title>Node11</title>
<g id="a_Node000011"><a xlink:href="queue_8h.html" target="_top" xlink:title=" ">
<polygon fill="white" stroke="#666666" points="383.73,-132 333.23,-132 333.23,-112 383.73,-112 383.73,-132"/>
<text xml:space="preserve" text-anchor="middle" x="358.48" y="-118.5" font-family="Helvetica,sans-Serif" font-size="10.00">queue.h</text>
</a>
</g>
</g>
<!-- Node6&#45;&gt;Node11 -->
<g id="edge16_Node000006_Node000011" class="edge">
<title>Node6&#45;&gt;Node11</title>
<g id="a_edge16_Node000006_Node000011"><a xlink:title=" ">
<path fill="none" stroke="#63b8ff" d="M358.48,-167.59C358.48,-161.01 358.48,-151.96 358.48,-143.73"/>
<polygon fill="#63b8ff" stroke="#63b8ff" points="361.98,-143.81 358.48,-133.81 354.98,-143.81 361.98,-143.81"/>
</a>
</g>
</g>
<!-- Node12 -->
<g id="Node000012" class="node">
<title>Node12</title>
<g id="a_Node000012"><a xlink:href="graph_8h.html" target="_top" xlink:title=" ">
<polygon fill="white" stroke="#666666" points="449.6,-132 401.35,-132 401.35,-112 449.6,-112 449.6,-132"/>
<text xml:space="preserve" text-anchor="middle" x="425.48" y="-118.5" font-family="Helvetica,sans-Serif" font-size="10.00">graph.h</text>
</a>
</g>
</g>
<!-- Node6&#45;&gt;Node12 -->
<g id="edge18_Node000006_Node000012" class="edge">
<title>Node6&#45;&gt;Node12</title>
<g id="a_edge18_Node000006_Node000012"><a xlink:title=" ">
<path fill="none" stroke="#63b8ff" d="M370.15,-167.59C379.75,-159.85 393.6,-148.69 405.04,-139.47"/>
<polygon fill="#63b8ff" stroke="#63b8ff" points="407.17,-142.25 412.76,-133.25 402.78,-136.8 407.17,-142.25"/>
</a>
</g>
</g>
<!-- Node13 -->
<g id="Node000013" class="node">
<title>Node13</title>
<g id="a_Node000013"><a xlink:href="sparse__matrix_8h.html" target="_top" xlink:title=" ">
<polygon fill="white" stroke="#666666" points="591.35,-132 505.6,-132 505.6,-112 591.35,-112 591.35,-132"/>
<text xml:space="preserve" text-anchor="middle" x="548.48" y="-118.5" font-family="Helvetica,sans-Serif" font-size="10.00">sparse_matrix.h</text>
</a>
</g>
</g>
<!-- Node6&#45;&gt;Node13 -->
<g id="edge20_Node000006_Node000013" class="edge">
<title>Node6&#45;&gt;Node13</title>
<g id="a_edge20_Node000006_Node000013"><a xlink:title=" ">
<path fill="none" stroke="#63b8ff" d="M382.93,-170.05C413.58,-161.34 466.67,-146.25 504.47,-135.51"/>
<polygon fill="#63b8ff" stroke="#63b8ff" points="505.06,-138.98 513.72,-132.88 503.15,-132.25 505.06,-138.98"/>
</a>
</g>
</g>
<!-- Node14 -->
<g id="Node000014" class="node">
<title>Node14</title>
<g id="a_Node000014"><a xlink:href="hash__table_8h.html" target="_top" xlink:title=" ">
<polygon fill="white" stroke="#666666" points="186.23,-132 114.73,-132 114.73,-112 186.23,-112 186.23,-132"/>
<text xml:space="preserve" text-anchor="middle" x="150.48" y="-118.5" font-family="Helvetica,sans-Serif" font-size="10.00">hash_table.h</text>
</a>
</g>
</g>
<!-- Node6&#45;&gt;Node14 -->
<g id="edge25_Node000006_Node000014" class="edge">
<title>Node6&#45;&gt;Node14</title>
<g id="a_edge25_Node000006_Node000014"><a xlink:title=" ">
<path fill="none" stroke="#63b8ff" d="M334.21,-170.7C300.76,-162.02 239.82,-146.19 197.33,-135.16"/>
<polygon fill="#63b8ff" stroke="#63b8ff" points="198.44,-131.84 187.88,-132.71 196.68,-138.61 198.44,-131.84"/>
</a>
</g>
</g>
<!-- Node7&#45;&gt;Node8 -->
<g id="edge7_Node000007_Node000008" class="edge">
<title>Node7&#45;&gt;Node8</title>
<g id="a_edge7_Node000007_Node000008"><a xlink:title=" ">
<path fill="none" stroke="#63b8ff" d="M237.8,-111.59C247.12,-103.85 260.56,-92.69 271.65,-83.47"/>
<polygon fill="#63b8ff" stroke="#63b8ff" points="273.66,-86.35 279.12,-77.27 269.19,-80.96 273.66,-86.35"/>
</a>
</g>
</g>
<!-- Node8&#45;&gt;Node2 -->
<g id="edge8_Node000008_Node000002" class="edge">
<title>Node8&#45;&gt;Node2</title>
<g id="a_edge8_Node000008_Node000002"><a xlink:title=" ">
<path fill="none" stroke="#63b8ff" d="M265.73,-57.6C232.37,-48.02 174.14,-31.3 137.26,-20.7"/>
<polygon fill="#63b8ff" stroke="#63b8ff" points="138.59,-17.44 128.01,-18.05 136.65,-24.17 138.59,-17.44"/>
</a>
</g>
</g>
<!-- Node8&#45;&gt;Node3 -->
<g id="edge9_Node000008_Node000003" class="edge">
<title>Node8&#45;&gt;Node3</title>
<g id="a_edge9_Node000008_Node000003"><a xlink:title=" ">
<path fill="none" stroke="#63b8ff" d="M291.48,-55.59C291.48,-49.01 291.48,-39.96 291.48,-31.73"/>
<polygon fill="#63b8ff" stroke="#63b8ff" points="294.98,-31.81 291.48,-21.81 287.98,-31.81 294.98,-31.81"/>
</a>
</g>
</g>
<!-- Node9&#45;&gt;Node8 -->
<g id="edge11_Node000009_Node000008" class="edge">
<title>Node9&#45;&gt;Node8</title>
<g id="a_edge11_Node000009_Node000008"><a xlink:title=" ">
<path fill="none" stroke="#63b8ff" d="M291.48,-111.59C291.48,-105.01 291.48,-95.96 291.48,-87.73"/>
<polygon fill="#63b8ff" stroke="#63b8ff" points="294.98,-87.81 291.48,-77.81 287.98,-87.81 294.98,-87.81"/>
</a>
</g>
</g>
<!-- Node10&#45;&gt;Node2 -->
<g id="edge13_Node000010_Node000002" class="edge">
<title>Node10&#45;&gt;Node2</title>
<g id="a_edge13_Node000010_Node000002"><a xlink:title=" ">
<path fill="none" stroke="#63b8ff" d="M65.97,-111.62C72.6,-93.84 87.12,-54.88 96.02,-31"/>
<polygon fill="#63b8ff" stroke="#63b8ff" points="99.25,-32.37 99.46,-21.77 92.69,-29.92 99.25,-32.37"/>
</a>
</g>
</g>
<!-- Node10&#45;&gt;Node3 -->
<g id="edge14_Node000010_Node000003" class="edge">
<title>Node10&#45;&gt;Node3</title>
<g id="a_edge14_Node000010_Node000003"><a xlink:title=" ">
<path fill="none" stroke="#63b8ff" d="M82,-111.62C122.14,-92.34 214.14,-48.15 261.73,-25.29"/>
<polygon fill="#63b8ff" stroke="#63b8ff" points="263.14,-28.49 270.64,-21.01 260.11,-22.19 263.14,-28.49"/>
</a>
</g>
</g>
<!-- Node10&#45;&gt;Node8 -->
<g id="edge15_Node000010_Node000008" class="edge">
<title>Node10&#45;&gt;Node8</title>
<g id="a_edge15_Node000010_Node000008"><a xlink:title=" ">
<path fill="none" stroke="#63b8ff" d="M96.76,-112.92C139.25,-102.9 211.37,-85.89 254.9,-75.63"/>
<polygon fill="#63b8ff" stroke="#63b8ff" points="255.44,-79.09 264.37,-73.39 253.83,-72.28 255.44,-79.09"/>
</a>
</g>
</g>
<!-- Node11&#45;&gt;Node8 -->
<g id="edge17_Node000011_Node000008" class="edge">
<title>Node11&#45;&gt;Node8</title>
<g id="a_edge17_Node000011_Node000008"><a xlink:title=" ">
<path fill="none" stroke="#63b8ff" d="M346.81,-111.59C337.2,-103.85 323.35,-92.69 311.91,-83.47"/>
<polygon fill="#63b8ff" stroke="#63b8ff" points="314.17,-80.8 304.19,-77.25 309.78,-86.25 314.17,-80.8"/>
</a>
</g>
</g>
<!-- Node12&#45;&gt;Node8 -->
<g id="edge19_Node000012_Node000008" class="edge">
<title>Node12&#45;&gt;Node8</title>
<g id="a_edge19_Node000012_Node000008"><a xlink:title=" ">
<path fill="none" stroke="#63b8ff" d="M402.14,-111.59C380.94,-103.05 349.41,-90.35 325.43,-80.68"/>
<polygon fill="#63b8ff" stroke="#63b8ff" points="326.99,-77.54 316.4,-77.05 324.37,-84.03 326.99,-77.54"/>
</a>
</g>
</g>
<!-- Node13&#45;&gt;Node2 -->
<g id="edge21_Node000013_Node000002" class="edge">
<title>Node13&#45;&gt;Node2</title>
<g id="a_edge21_Node000013_Node000002"><a xlink:title=" ">
<path fill="none" stroke="#63b8ff" d="M519.11,-111.59C476.66,-98.18 395.56,-73.29 325.48,-56 259.37,-39.7 181.15,-24.86 137.43,-16.97"/>
<polygon fill="#63b8ff" stroke="#63b8ff" points="138.26,-13.56 127.8,-15.24 137.02,-20.45 138.26,-13.56"/>
</a>
</g>
</g>
<!-- Node13&#45;&gt;Node3 -->
<g id="edge22_Node000013_Node000003" class="edge">
<title>Node13&#45;&gt;Node3</title>
<g id="a_edge22_Node000013_Node000003"><a xlink:title=" ">
<path fill="none" stroke="#63b8ff" d="M533.24,-111.7C510.71,-98.21 466.91,-72.96 427.48,-56 393.94,-41.57 354.16,-28.9 326.31,-20.71"/>
<polygon fill="#63b8ff" stroke="#63b8ff" points="327.56,-17.43 316.98,-18.01 325.61,-24.15 327.56,-17.43"/>
</a>
</g>
</g>
<!-- Node13&#45;&gt;Node4 -->
<g id="edge23_Node000013_Node000004" class="edge">
<title>Node13&#45;&gt;Node4</title>
<g id="a_edge23_Node000013_Node000004"><a xlink:title=" ">
<path fill="none" stroke="#63b8ff" d="M555.44,-111.59C560.78,-104.39 568.3,-94.23 574.82,-85.43"/>
<polygon fill="#63b8ff" stroke="#63b8ff" points="577.55,-87.63 580.69,-77.51 571.92,-83.47 577.55,-87.63"/>
</a>
</g>
</g>
<!-- Node13&#45;&gt;Node8 -->
<g id="edge24_Node000013_Node000008" class="edge">
<title>Node13&#45;&gt;Node8</title>
<g id="a_edge24_Node000013_Node000008"><a xlink:title=" ">
<path fill="none" stroke="#63b8ff" d="M505.17,-111.9C455.45,-101.45 374.77,-84.5 328.07,-74.69"/>
<polygon fill="#63b8ff" stroke="#63b8ff" points="328.95,-71.3 318.45,-72.67 327.51,-78.15 328.95,-71.3"/>
</a>
</g>
</g>
<!-- Node14&#45;&gt;Node2 -->
<g id="edge26_Node000014_Node000002" class="edge">
<title>Node14&#45;&gt;Node2</title>
<g id="a_edge26_Node000014_Node000002"><a xlink:title=" ">
<path fill="none" stroke="#63b8ff" d="M146.47,-111.62C138.84,-93.76 122.08,-54.53 111.88,-30.67"/>
<polygon fill="#63b8ff" stroke="#63b8ff" points="115.22,-29.57 108.07,-21.75 108.78,-32.32 115.22,-29.57"/>
</a>
</g>
</g>
<!-- Node14&#45;&gt;Node3 -->
<g id="edge27_Node000014_Node000003" class="edge">
<title>Node14&#45;&gt;Node3</title>
<g id="a_edge27_Node000014_Node000003"><a xlink:title=" ">
<path fill="none" stroke="#63b8ff" d="M162.5,-111.62C186.54,-92.87 240.78,-50.55 270.7,-27.21"/>
<polygon fill="#63b8ff" stroke="#63b8ff" points="272.56,-30.2 278.29,-21.29 268.26,-24.68 272.56,-30.2"/>
</a>
</g>
</g>
<!-- Node14&#45;&gt;Node8 -->
<g id="edge28_Node000014_Node000008" class="edge">
<title>Node14&#45;&gt;Node8</title>
<g id="a_edge28_Node000014_Node000008"><a xlink:title=" ">
<path fill="none" stroke="#63b8ff" d="M175.04,-111.59C197.44,-103.01 230.81,-90.23 256.1,-80.55"/>
<polygon fill="#63b8ff" stroke="#63b8ff" points="257.22,-83.87 265.31,-77.02 254.72,-77.33 257.22,-83.87"/>
</a>
</g>
</g>
</g>
</svg>

<g id="navigator" transform="translate(0 0)" fill="#404254">
  <rect fill="#f2f5e9" fill-opacity="0.5" stroke="#606060" stroke-width=".5" x="0" y="0" width="60" height="60"/>
  <use id="zoomplus" xlink:href="#zoomPlus" x="17" y="9" onmousedown="handleZoom(evt,'in')"/>
  <use id="zoomminus" xlink:href="#zoomMin" x="42" y="9" onmousedown="handleZoom(evt,'out')"/>
  <use id="reset" xlink:href="#resetDef" x="30" y="36" onmousedown="handleReset()"/>
   <use id="arrowup" xlink:href="#arrowUp" x="0" y="0" onmousedown="handlePan(0,-1)"/>
  <use id="arrowright" xlink:href="#arrowRight" x="0" y="0" onmousedown="handlePan(1,0)"/>
  <use id="arrowdown" xlink:href="#arrowDown" x="0" y="0" onmousedown="handlePan(0,1)"/>
  <use id="arrowleft" xlink:href="#arrowLeft" x="0" y="0" onmousedown="handlePan(-1,0)"/>
</g>
<svg viewBox="0 0 15 15" width="100%" height="30px" preserveAspectRatio="xMaxYMin meet">
 <g id="arrow_out" transform="scale(0.3 0.3)">
  <a xlink:href="menu_8c__incl_org.svg" target="_base">
   <rect id="button" ry="5" rx="5" y="6" x="6" height="38" width="38"
        fill="#f2f5e9" fill-opacity="0.5" stroke="#606060" stroke-width="1.0"/>
   <path id="arrow"
     d="M 11.500037,31.436501 C 11.940474,20.09759 22.043105,11.32322 32.158766,21.979434 L 37.068811,17.246167 C 37.068811,17.246167 37.088388,32 37.088388,32 L 22.160133,31.978069 C 22.160133,31.978069 26.997745,27.140456 26.997745,27.140456 C 18.528582,18.264221 13.291696,25.230495 11.500037,31.436501 z"
     style="fill:#404040;"/>
  </a>
 </g>
</svg>

<style type='text/css'>
<![CDATA[
[data-mouse-over-selected='false'] { opacity: 0.7; }
[data-mouse-over-selected='true']  { opacity: 1.0; }
]]>
</style>
<script type="application/ecmascript"><![CDATA[
document.addEventListener('DOMContentLoaded', (event) => {
  highlightEdges();
  highlightAdjacentNodes();
});
]]></script>
</svg>
