<?xml version="1.0" encoding="UTF-8" standalone="no"?>
<!DOCTYPE svg PUBLIC "-//W3C//DTD SVG 1.1//EN"
 "http://www.w3.org/Graphics/SVG/1.1/DTD/svg11.dtd">
<!-- Generated by graphviz version 14.0.2 (20251019.1705)
 -->
<!-- Title: src/recipe/header/queue.hpp Pages: 1 -->
<svg width="324pt" height="140pt"
 viewBox="0.00 0.00 324.00 140.00" xmlns="http://www.w3.org/2000/svg" xmlns:xlink="http://www.w3.org/1999/xlink">

<svg id="main" version="1.1" xmlns="http://www.w3.org/2000/svg" xmlns:xlink="http://www.w3.org/1999/xlink" xml:space="preserve">

<style type="text/css"><![CDATA[
.node, .edge {opacity: 0.7;}
.node.selected, .edge.selected {opacity: 1;}
.edge:hover path { stroke: red; }
.edge:hover polygon { stroke: red; fill: red; }
]]></style>
<script type="application/ecmascript" xlink:href="svg.min.js"/>
<svg id="graph" class="graph">
<g id="graph0" class="graph" transform="scale(1 1) rotate(0) translate(4 136)">
<title>src/recipe/header/queue.hpp</title>
<!-- Node1 -->
<g id="Node000001" class="node">
<title>Node1</title>
<g id="a_Node000001"><a xlink:title="Circular Queue for Weekly Meal Planning (C++ version).">
<polygon fill="#999999" stroke="#666666" points="234.25,-132 95.25,-132 95.25,-112 234.25,-112 234.25,-132"/>
<text xml:space="preserve" text-anchor="middle" x="164.75" y="-118.5" font-family="Helvetica,sans-Serif" font-size="10.00">src/recipe/header/queue.hpp</text>
</a>
</g>
</g>
<!-- Node2 -->
<g id="Node000002" class="node">
<title>Node2</title>
<g id="a_Node000002"><a xlink:title=" ">
<polygon fill="#e0e0e0" stroke="#999999" points="53.5,-20 0,-20 0,0 53.5,0 53.5,-20"/>
<text xml:space="preserve" text-anchor="middle" x="26.75" y="-6.5" font-family="Helvetica,sans-Serif" font-size="10.00">iostream</text>
</a>
</g>
</g>
<!-- Node1&#45;&gt;Node2 -->
<g id="edge1_Node000001_Node000002" class="edge">
<title>Node1&#45;&gt;Node2</title>
<g id="a_edge1_Node000001_Node000002"><a xlink:title=" ">
<path fill="none" stroke="#63b8ff" d="M152.98,-111.62C129.56,-92.95 76.83,-50.92 47.47,-27.52"/>
<polygon fill="#63b8ff" stroke="#63b8ff" points="49.67,-24.79 39.67,-21.3 45.31,-30.27 49.67,-24.79"/>
</a>
</g>
</g>
<!-- Node3 -->
<g id="Node000003" class="node">
<title>Node3</title>
<g id="a_Node000003"><a xlink:title=" ">
<polygon fill="#e0e0e0" stroke="#999999" points="289.62,-76 251.88,-76 251.88,-56 289.62,-56 289.62,-76"/>
<text xml:space="preserve" text-anchor="middle" x="270.75" y="-62.5" font-family="Helvetica,sans-Serif" font-size="10.00">array</text>
</a>
</g>
</g>
<!-- Node1&#45;&gt;Node3 -->
<g id="edge2_Node000001_Node000003" class="edge">
<title>Node1&#45;&gt;Node3</title>
<g id="a_edge2_Node000001_Node000003"><a xlink:title=" ">
<path fill="none" stroke="#63b8ff" d="M183.21,-111.59C199.45,-103.32 223.36,-91.14 242.08,-81.6"/>
<polygon fill="#63b8ff" stroke="#63b8ff" points="243.47,-84.82 250.79,-77.17 240.29,-78.59 243.47,-84.82"/>
</a>
</g>
</g>
<!-- Node4 -->
<g id="Node000004" class="node">
<title>Node4</title>
<g id="a_Node000004"><a xlink:title=" ">
<polygon fill="#e0e0e0" stroke="#999999" points="122.38,-20 71.12,-20 71.12,0 122.38,0 122.38,-20"/>
<text xml:space="preserve" text-anchor="middle" x="96.75" y="-6.5" font-family="Helvetica,sans-Serif" font-size="10.00">memory</text>
</a>
</g>
</g>
<!-- Node1&#45;&gt;Node4 -->
<g id="edge3_Node000001_Node000004" class="edge">
<title>Node1&#45;&gt;Node4</title>
<g id="a_edge3_Node000001_Node000004"><a xlink:title=" ">
<path fill="none" stroke="#63b8ff" d="M155.18,-111.66C146.68,-102.99 134.3,-89.43 125.75,-76 116.71,-61.79 109.07,-44.29 103.91,-31.03"/>
<polygon fill="#63b8ff" stroke="#63b8ff" points="107.2,-29.82 100.43,-21.68 100.64,-32.27 107.2,-29.82"/>
</a>
</g>
</g>
<!-- Node5 -->
<g id="Node000005" class="node">
<title>Node5</title>
<g id="a_Node000005"><a xlink:title=" ">
<polygon fill="#e0e0e0" stroke="#999999" points="315.75,-20 275.75,-20 275.75,0 315.75,0 315.75,-20"/>
<text xml:space="preserve" text-anchor="middle" x="295.75" y="-6.5" font-family="Helvetica,sans-Serif" font-size="10.00">string</text>
</a>
</g>
</g>
<!-- Node1&#45;&gt;Node5 -->
<g id="edge4_Node000001_Node000005" class="edge">
<title>Node1&#45;&gt;Node5</title>
<g id="a_edge4_Node000001_Node000005"><a xlink:title=" ">
<path fill="none" stroke="#63b8ff" d="M175.92,-111.62C198.15,-92.95 248.21,-50.92 276.08,-27.52"/>
<polygon fill="#63b8ff" stroke="#63b8ff" points="278.04,-30.44 283.45,-21.33 273.54,-25.08 278.04,-30.44"/>
</a>
</g>
</g>
<!-- Node6 -->
<g id="Node000006" class="node">
<title>Node6</title>
<g id="a_Node000006"><a xlink:href="recipe_8hpp.html" target="_top" xlink:title="Represents a Recipe entity in the Recipe &amp; Nutrition Tracker (C++ version).">
<polygon fill="white" stroke="#666666" points="195.25,-76 134.25,-76 134.25,-56 195.25,-56 195.25,-76"/>
<text xml:space="preserve" text-anchor="middle" x="164.75" y="-62.5" font-family="Helvetica,sans-Serif" font-size="10.00">recipe.hpp</text>
</a>
</g>
</g>
<!-- Node1&#45;&gt;Node6 -->
<g id="edge5_Node000001_Node000006" class="edge">
<title>Node1&#45;&gt;Node6</title>
<g id="a_edge5_Node000001_Node000006"><a xlink:title=" ">
<path fill="none" stroke="#63b8ff" d="M164.75,-111.59C164.75,-105.01 164.75,-95.96 164.75,-87.73"/>
<polygon fill="#63b8ff" stroke="#63b8ff" points="168.25,-87.81 164.75,-77.81 161.25,-87.81 168.25,-87.81"/>
</a>
</g>
</g>
<!-- Node6&#45;&gt;Node2 -->
<g id="edge6_Node000006_Node000002" class="edge">
<title>Node6&#45;&gt;Node2</title>
<g id="a_edge6_Node000006_Node000002"><a xlink:title=" ">
<path fill="none" stroke="#63b8ff" d="M140.71,-55.59C118.78,-47.01 86.12,-34.23 61.38,-24.55"/>
<polygon fill="#63b8ff" stroke="#63b8ff" points="62.97,-21.42 52.38,-21.03 60.42,-27.93 62.97,-21.42"/>
</a>
</g>
</g>
<!-- Node6&#45;&gt;Node4 -->
<g id="edge9_Node000006_Node000004" class="edge">
<title>Node6&#45;&gt;Node4</title>
<g id="a_edge9_Node000006_Node000004"><a xlink:title=" ">
<path fill="none" stroke="#63b8ff" d="M152.91,-55.59C143.06,-47.77 128.82,-36.46 117.14,-27.19"/>
<polygon fill="#63b8ff" stroke="#63b8ff" points="119.65,-24.72 109.64,-21.24 115.3,-30.2 119.65,-24.72"/>
</a>
</g>
</g>
<!-- Node6&#45;&gt;Node5 -->
<g id="edge7_Node000006_Node000005" class="edge">
<title>Node6&#45;&gt;Node5</title>
<g id="a_edge7_Node000006_Node000005"><a xlink:title=" ">
<path fill="none" stroke="#63b8ff" d="M187.57,-55.59C208.96,-46.78 241.1,-33.53 264.8,-23.76"/>
<polygon fill="#63b8ff" stroke="#63b8ff" points="266.03,-27.04 273.94,-19.99 263.37,-20.56 266.03,-27.04"/>
</a>
</g>
</g>
<!-- Node7 -->
<g id="Node000007" class="node">
<title>Node7</title>
<g id="a_Node000007"><a xlink:title=" ">
<polygon fill="#e0e0e0" stroke="#999999" points="257.25,-20 214.25,-20 214.25,0 257.25,0 257.25,-20"/>
<text xml:space="preserve" text-anchor="middle" x="235.75" y="-6.5" font-family="Helvetica,sans-Serif" font-size="10.00">vector</text>
</a>
</g>
</g>
<!-- Node6&#45;&gt;Node7 -->
<g id="edge8_Node000006_Node000007" class="edge">
<title>Node6&#45;&gt;Node7</title>
<g id="a_edge8_Node000006_Node000007"><a xlink:title=" ">
<path fill="none" stroke="#63b8ff" d="M177.12,-55.59C187.4,-47.77 202.27,-36.46 214.46,-27.19"/>
<polygon fill="#63b8ff" stroke="#63b8ff" points="216.48,-30.05 222.32,-21.21 212.24,-24.48 216.48,-30.05"/>
</a>
</g>
</g>
<!-- Node8 -->
<g id="Node000008" class="node">
<title>Node8</title>
<g id="a_Node000008"><a xlink:title=" ">
<polygon fill="#e0e0e0" stroke="#999999" points="196.62,-20 140.88,-20 140.88,0 196.62,0 196.62,-20"/>
<text xml:space="preserve" text-anchor="middle" x="168.75" y="-6.5" font-family="Helvetica,sans-Serif" font-size="10.00">algorithm</text>
</a>
</g>
</g>
<!-- Node6&#45;&gt;Node8 -->
<g id="edge10_Node000006_Node000008" class="edge">
<title>Node6&#45;&gt;Node8</title>
<g id="a_edge10_Node000006_Node000008"><a xlink:title=" ">
<path fill="none" stroke="#63b8ff" d="M165.45,-55.59C165.93,-49.01 166.6,-39.96 167.21,-31.73"/>
<polygon fill="#63b8ff" stroke="#63b8ff" points="170.7,-32.04 167.95,-21.81 163.72,-31.52 170.7,-32.04"/>
</a>
</g>
</g>
</g>
</svg>
</svg>

<style type='text/css'>
<![CDATA[
[data-mouse-over-selected='false'] { opacity: 0.7; }
[data-mouse-over-selected='true']  { opacity: 1.0; }
]]>
</style>
<script type="application/ecmascript"><![CDATA[
document.addEventListener('DOMContentLoaded', (event) => {
  highlightEdges();
  highlightAdjacentNodes();
});
]]></script>
</svg>
