<?xml version="1.0" encoding="UTF-8" standalone="no"?>
<!DOCTYPE svg PUBLIC "-//W3C//DTD SVG 1.1//EN"
 "http://www.w3.org/Graphics/SVG/1.1/DTD/svg11.dtd">
<!-- Generated by graphviz version 14.0.2 (20251019.1705)
 -->
<!-- Title: src/recipe/header/sparse_matrix.hpp Pages: 1 -->
<svg width="358pt" height="152pt"
 viewBox="0.00 0.00 358.00 152.00" xmlns="http://www.w3.org/2000/svg" xmlns:xlink="http://www.w3.org/1999/xlink">
<g id="graph0" class="graph" transform="scale(1 1) rotate(0) translate(4 148)">
<title>src/recipe/header/sparse_matrix.hpp</title>
<!-- Node1 -->
<g id="Node000001" class="node">
<title>Node1</title>
<g id="a_Node000001"><a xlink:title="Sparse Matrix implementation for ingredient&#45;recipe relationships (C++ version).">
<polygon fill="#999999" stroke="#666666" points="236.38,-144 113.12,-144 113.12,-112 236.38,-112 236.38,-144"/>
<text xml:space="preserve" text-anchor="start" x="121.12" y="-130.5" font-family="Helvetica,sans-Serif" font-size="10.00">src/recipe/header/sparse</text>
<text xml:space="preserve" text-anchor="middle" x="174.75" y="-118.5" font-family="Helvetica,sans-Serif" font-size="10.00">_matrix.hpp</text>
</a>
</g>
</g>
<!-- Node2 -->
<g id="Node000002" class="node">
<title>Node2</title>
<g id="a_Node000002"><a xlink:title=" ">
<polygon fill="#e0e0e0" stroke="#999999" points="53.5,-20 0,-20 0,0 53.5,0 53.5,-20"/>
<text xml:space="preserve" text-anchor="middle" x="26.75" y="-6.5" font-family="Helvetica,sans-Serif" font-size="10.00">iostream</text>
</a>
</g>
</g>
<!-- Node1&#45;&gt;Node2 -->
<g id="edge1_Node000001_Node000002" class="edge">
<title>Node1&#45;&gt;Node2</title>
<g id="a_edge1_Node000001_Node000002"><a xlink:title=" ">
<path fill="none" stroke="#63b8ff" d="M155.1,-111.6C127.12,-89.67 76.05,-49.64 47.49,-27.26"/>
<polygon fill="#63b8ff" stroke="#63b8ff" points="49.96,-24.74 39.93,-21.33 45.64,-30.25 49.96,-24.74"/>
</a>
</g>
</g>
<!-- Node3 -->
<g id="Node000003" class="node">
<title>Node3</title>
<g id="a_Node000003"><a xlink:title=" ">
<polygon fill="#e0e0e0" stroke="#999999" points="111.75,-20 71.75,-20 71.75,0 111.75,0 111.75,-20"/>
<text xml:space="preserve" text-anchor="middle" x="91.75" y="-6.5" font-family="Helvetica,sans-Serif" font-size="10.00">string</text>
</a>
</g>
</g>
<!-- Node1&#45;&gt;Node3 -->
<g id="edge2_Node000001_Node000003" class="edge">
<title>Node1&#45;&gt;Node3</title>
<g id="a_edge2_Node000001_Node000003"><a xlink:title=" ">
<path fill="none" stroke="#63b8ff" d="M159.73,-111.59C150.56,-101.8 138.88,-88.63 129.75,-76 119.1,-61.27 108.81,-43.36 101.63,-30.08"/>
<polygon fill="#63b8ff" stroke="#63b8ff" points="104.87,-28.71 97.09,-21.51 98.68,-31.99 104.87,-28.71"/>
</a>
</g>
</g>
<!-- Node4 -->
<g id="Node000004" class="node">
<title>Node4</title>
<g id="a_Node000004"><a xlink:title=" ">
<polygon fill="#e0e0e0" stroke="#999999" points="181.38,-20 130.12,-20 130.12,0 181.38,0 181.38,-20"/>
<text xml:space="preserve" text-anchor="middle" x="155.75" y="-6.5" font-family="Helvetica,sans-Serif" font-size="10.00">memory</text>
</a>
</g>
</g>
<!-- Node1&#45;&gt;Node4 -->
<g id="edge3_Node000001_Node000004" class="edge">
<title>Node1&#45;&gt;Node4</title>
<g id="a_edge3_Node000001_Node000004"><a xlink:title=" ">
<path fill="none" stroke="#63b8ff" d="M158.68,-111.64C150.07,-102.26 140.32,-89.51 135.75,-76 130.54,-60.62 136.7,-43.01 143.52,-30"/>
<polygon fill="#63b8ff" stroke="#63b8ff" points="146.39,-32.02 148.4,-21.62 140.34,-28.5 146.39,-32.02"/>
</a>
</g>
</g>
<!-- Node5 -->
<g id="Node000005" class="node">
<title>Node5</title>
<g id="a_Node000005"><a xlink:title=" ">
<polygon fill="#e0e0e0" stroke="#999999" points="242.25,-20 199.25,-20 199.25,0 242.25,0 242.25,-20"/>
<text xml:space="preserve" text-anchor="middle" x="220.75" y="-6.5" font-family="Helvetica,sans-Serif" font-size="10.00">vector</text>
</a>
</g>
</g>
<!-- Node1&#45;&gt;Node5 -->
<g id="edge4_Node000001_Node000005" class="edge">
<title>Node1&#45;&gt;Node5</title>
<g id="a_edge4_Node000001_Node000005"><a xlink:title=" ">
<path fill="none" stroke="#63b8ff" d="M190.76,-111.54C199.43,-102.13 209.43,-89.38 214.75,-76 220.4,-61.8 221.76,-44.51 221.79,-31.34"/>
<polygon fill="#63b8ff" stroke="#63b8ff" points="225.29,-31.62 221.53,-21.72 218.3,-31.81 225.29,-31.62"/>
</a>
</g>
</g>
<!-- Node6 -->
<g id="Node000006" class="node">
<title>Node6</title>
<g id="a_Node000006"><a xlink:title=" ">
<polygon fill="#e0e0e0" stroke="#999999" points="315.62,-20 259.88,-20 259.88,0 315.62,0 315.62,-20"/>
<text xml:space="preserve" text-anchor="middle" x="287.75" y="-6.5" font-family="Helvetica,sans-Serif" font-size="10.00">algorithm</text>
</a>
</g>
</g>
<!-- Node1&#45;&gt;Node6 -->
<g id="edge5_Node000001_Node000006" class="edge">
<title>Node1&#45;&gt;Node6</title>
<g id="a_edge5_Node000001_Node000006"><a xlink:title=" ">
<path fill="none" stroke="#63b8ff" d="M193.01,-111.72C204.48,-101.88 219.38,-88.6 231.75,-76 246.69,-60.77 262.45,-42.24 273.42,-28.86"/>
<polygon fill="#63b8ff" stroke="#63b8ff" points="275.95,-31.3 279.54,-21.33 270.52,-26.89 275.95,-31.3"/>
</a>
</g>
</g>
<!-- Node7 -->
<g id="Node000007" class="node">
<title>Node7</title>
<g id="a_Node000007"><a xlink:title=" ">
<polygon fill="#e0e0e0" stroke="#999999" points="349.62,-76 299.88,-76 299.88,-56 349.62,-56 349.62,-76"/>
<text xml:space="preserve" text-anchor="middle" x="324.75" y="-62.5" font-family="Helvetica,sans-Serif" font-size="10.00">iomanip</text>
</a>
</g>
</g>
<!-- Node1&#45;&gt;Node7 -->
<g id="edge6_Node000001_Node000007" class="edge">
<title>Node1&#45;&gt;Node7</title>
<g id="a_edge6_Node000001_Node000007"><a xlink:title=" ">
<path fill="none" stroke="#63b8ff" d="M213.38,-111.55C237.25,-102 267.61,-89.86 290.6,-80.66"/>
<polygon fill="#63b8ff" stroke="#63b8ff" points="291.84,-83.93 299.82,-76.97 289.24,-77.43 291.84,-83.93"/>
</a>
</g>
</g>
<!-- Node8 -->
<g id="Node000008" class="node">
<title>Node8</title>
<g id="a_Node000008"><a xlink:href="recipe_8hpp.html" target="_top" xlink:title="Represents a Recipe entity in the Recipe &amp; Nutrition Tracker (C++ version).">
<polygon fill="white" stroke="#666666" points="205.25,-76 144.25,-76 144.25,-56 205.25,-56 205.25,-76"/>
<text xml:space="preserve" text-anchor="middle" x="174.75" y="-62.5" font-family="Helvetica,sans-Serif" font-size="10.00">recipe.hpp</text>
</a>
</g>
</g>
<!-- Node1&#45;&gt;Node8 -->
<g id="edge7_Node000001_Node000008" class="edge">
<title>Node1&#45;&gt;Node8</title>
<g id="a_edge7_Node000001_Node000008"><a xlink:title=" ">
<path fill="none" stroke="#63b8ff" d="M174.75,-111.55C174.75,-104.34 174.75,-95.66 174.75,-87.88"/>
<polygon fill="#63b8ff" stroke="#63b8ff" points="178.25,-87.92 174.75,-77.92 171.25,-87.92 178.25,-87.92"/>
</a>
</g>
</g>
<!-- Node8&#45;&gt;Node2 -->
<g id="edge8_Node000008_Node000002" class="edge">
<title>Node8&#45;&gt;Node2</title>
<g id="a_edge8_Node000008_Node000002"><a xlink:title=" ">
<path fill="none" stroke="#63b8ff" d="M148.97,-55.59C125.35,-46.97 90.11,-34.12 63.53,-24.42"/>
<polygon fill="#63b8ff" stroke="#63b8ff" points="64.75,-21.14 54.15,-21 62.35,-27.71 64.75,-21.14"/>
</a>
</g>
</g>
<!-- Node8&#45;&gt;Node3 -->
<g id="edge9_Node000008_Node000003" class="edge">
<title>Node8&#45;&gt;Node3</title>
<g id="a_edge9_Node000008_Node000003"><a xlink:title=" ">
<path fill="none" stroke="#63b8ff" d="M160.29,-55.59C147.99,-47.59 130.07,-35.93 115.64,-26.54"/>
<polygon fill="#63b8ff" stroke="#63b8ff" points="117.88,-23.82 107.59,-21.3 114.06,-29.69 117.88,-23.82"/>
</a>
</g>
</g>
<!-- Node8&#45;&gt;Node4 -->
<g id="edge11_Node000008_Node000004" class="edge">
<title>Node8&#45;&gt;Node4</title>
<g id="a_edge11_Node000008_Node000004"><a xlink:title=" ">
<path fill="none" stroke="#63b8ff" d="M171.44,-55.59C169.07,-48.86 165.79,-39.53 162.84,-31.15"/>
<polygon fill="#63b8ff" stroke="#63b8ff" points="166.14,-30 159.52,-21.73 159.54,-32.32 166.14,-30"/>
</a>
</g>
</g>
<!-- Node8&#45;&gt;Node5 -->
<g id="edge10_Node000008_Node000005" class="edge">
<title>Node8&#45;&gt;Node5</title>
<g id="a_edge10_Node000008_Node000005"><a xlink:title=" ">
<path fill="none" stroke="#63b8ff" d="M182.76,-55.59C189.03,-48.24 197.92,-37.8 205.53,-28.87"/>
<polygon fill="#63b8ff" stroke="#63b8ff" points="208.03,-31.33 211.85,-21.45 202.7,-26.79 208.03,-31.33"/>
</a>
</g>
</g>
<!-- Node8&#45;&gt;Node6 -->
<g id="edge12_Node000008_Node000006" class="edge">
<title>Node8&#45;&gt;Node6</title>
<g id="a_edge12_Node000008_Node000006"><a xlink:title=" ">
<path fill="none" stroke="#63b8ff" d="M194.43,-55.59C211.91,-47.24 237.7,-34.92 257.75,-25.34"/>
<polygon fill="#63b8ff" stroke="#63b8ff" points="259.03,-28.6 266.55,-21.13 256.02,-22.29 259.03,-28.6"/>
</a>
</g>
</g>
</g>
</svg>
