<?xml version="1.0" encoding="UTF-8" standalone="no"?>
<!DOCTYPE svg PUBLIC "-//W3C//DTD SVG 1.1//EN"
 "http://www.w3.org/Graphics/SVG/1.1/DTD/svg11.dtd">
<!-- Generated by graphviz version 14.0.2 (20251019.1705)
 -->
<!-- Title: include/sparse_matrix.h Pages: 1 -->
<svg width="172pt" height="140pt"
 viewBox="0.00 0.00 172.00 140.00" xmlns="http://www.w3.org/2000/svg" xmlns:xlink="http://www.w3.org/1999/xlink">
<g id="graph0" class="graph" transform="scale(1 1) rotate(0) translate(4 136)">
<title>include/sparse_matrix.h</title>
<!-- Node1 -->
<g id="Node000001" class="node">
<title>Node1</title>
<g id="a_Node000001"><a xlink:title=" ">
<polygon fill="#999999" stroke="#666666" points="142.38,-132 22.88,-132 22.88,-112 142.38,-112 142.38,-132"/>
<text xml:space="preserve" text-anchor="middle" x="82.62" y="-118.5" font-family="Helvetica,sans-Serif" font-size="10.00">include/sparse_matrix.h</text>
</a>
</g>
</g>
<!-- Node2 -->
<g id="Node000002" class="node">
<title>Node2</title>
<g id="a_Node000002"><a xlink:title=" ">
<polygon fill="#e0e0e0" stroke="#999999" points="45.25,-20 0,-20 0,0 45.25,0 45.25,-20"/>
<text xml:space="preserve" text-anchor="middle" x="22.62" y="-6.5" font-family="Helvetica,sans-Serif" font-size="10.00">stdio.h</text>
</a>
</g>
</g>
<!-- Node1&#45;&gt;Node2 -->
<g id="edge1_Node000001_Node000002" class="edge">
<title>Node1&#45;&gt;Node2</title>
<g id="a_edge1_Node000001_Node000002"><a xlink:title=" ">
<path fill="none" stroke="#63b8ff" d="M57.83,-111.53C42.67,-104.29 24.52,-92.69 15.62,-76 8.28,-62.21 10.86,-44.45 14.81,-30.99"/>
<polygon fill="#63b8ff" stroke="#63b8ff" points="18,-32.49 17.93,-21.89 11.37,-30.21 18,-32.49"/>
</a>
</g>
</g>
<!-- Node3 -->
<g id="Node000003" class="node">
<title>Node3</title>
<g id="a_Node000003"><a xlink:title=" ">
<polygon fill="#e0e0e0" stroke="#999999" points="164.38,-20 116.88,-20 116.88,0 164.38,0 164.38,-20"/>
<text xml:space="preserve" text-anchor="middle" x="140.62" y="-6.5" font-family="Helvetica,sans-Serif" font-size="10.00">stdlib.h</text>
</a>
</g>
</g>
<!-- Node1&#45;&gt;Node3 -->
<g id="edge2_Node000001_Node000003" class="edge">
<title>Node1&#45;&gt;Node3</title>
<g id="a_edge2_Node000001_Node000003"><a xlink:title=" ">
<path fill="none" stroke="#63b8ff" d="M107.42,-111.53C122.58,-104.29 140.73,-92.69 149.62,-76 157,-62.16 153.84,-44.41 149.34,-30.95"/>
<polygon fill="#63b8ff" stroke="#63b8ff" points="152.7,-29.92 145.82,-21.85 146.17,-32.44 152.7,-29.92"/>
</a>
</g>
</g>
<!-- Node4 -->
<g id="Node000004" class="node">
<title>Node4</title>
<g id="a_Node000004"><a xlink:title=" ">
<polygon fill="#e0e0e0" stroke="#999999" points="140.75,-76 92.5,-76 92.5,-56 140.75,-56 140.75,-76"/>
<text xml:space="preserve" text-anchor="middle" x="116.62" y="-62.5" font-family="Helvetica,sans-Serif" font-size="10.00">string.h</text>
</a>
</g>
</g>
<!-- Node1&#45;&gt;Node4 -->
<g id="edge3_Node000001_Node000004" class="edge">
<title>Node1&#45;&gt;Node4</title>
<g id="a_edge3_Node000001_Node000004"><a xlink:title=" ">
<path fill="none" stroke="#63b8ff" d="M88.55,-111.59C92.98,-104.55 99.2,-94.67 104.66,-86"/>
<polygon fill="#63b8ff" stroke="#63b8ff" points="107.6,-87.91 109.96,-77.58 101.67,-84.18 107.6,-87.91"/>
</a>
</g>
</g>
<!-- Node5 -->
<g id="Node000005" class="node">
<title>Node5</title>
<g id="a_Node000005"><a xlink:href="recipe_8h.html" target="_top" xlink:title=" ">
<polygon fill="white" stroke="#666666" points="74.88,-76 24.38,-76 24.38,-56 74.88,-56 74.88,-76"/>
<text xml:space="preserve" text-anchor="middle" x="49.62" y="-62.5" font-family="Helvetica,sans-Serif" font-size="10.00">recipe.h</text>
</a>
</g>
</g>
<!-- Node1&#45;&gt;Node5 -->
<g id="edge4_Node000001_Node000005" class="edge">
<title>Node1&#45;&gt;Node5</title>
<g id="a_edge4_Node000001_Node000005"><a xlink:title=" ">
<path fill="none" stroke="#63b8ff" d="M76.88,-111.59C72.57,-104.55 66.53,-94.67 61.24,-86"/>
<polygon fill="#63b8ff" stroke="#63b8ff" points="64.3,-84.3 56.1,-77.59 58.32,-87.95 64.3,-84.3"/>
</a>
</g>
</g>
<!-- Node5&#45;&gt;Node2 -->
<g id="edge5_Node000005_Node000002" class="edge">
<title>Node5&#45;&gt;Node2</title>
<g id="a_edge5_Node000005_Node000002"><a xlink:title=" ">
<path fill="none" stroke="#63b8ff" d="M44.92,-55.59C41.48,-48.7 36.68,-39.1 32.41,-30.57"/>
<polygon fill="#63b8ff" stroke="#63b8ff" points="35.55,-29.03 27.95,-21.65 29.29,-32.16 35.55,-29.03"/>
</a>
</g>
</g>
<!-- Node5&#45;&gt;Node3 -->
<g id="edge6_Node000005_Node000003" class="edge">
<title>Node5&#45;&gt;Node3</title>
<g id="a_edge6_Node000005_Node000003"><a xlink:title=" ">
<path fill="none" stroke="#63b8ff" d="M65.48,-55.59C79.09,-47.51 98.99,-35.71 114.89,-26.27"/>
<polygon fill="#63b8ff" stroke="#63b8ff" points="116.53,-29.37 123.35,-21.25 112.96,-23.35 116.53,-29.37"/>
</a>
</g>
</g>
</g>
</svg>
