<?xml version="1.0" encoding="UTF-8" standalone="no"?>
<!DOCTYPE svg PUBLIC "-//W3C//DTD SVG 1.1//EN"
 "http://www.w3.org/Graphics/SVG/1.1/DTD/svg11.dtd">
<!-- Generated by graphviz version 14.0.2 (20251019.1705)
 -->
<!-- Title: src/recipe/header/stack.hpp Pages: 1 -->
<svg width="409pt" height="96pt"
 viewBox="0.00 0.00 409.00 96.00" xmlns="http://www.w3.org/2000/svg" xmlns:xlink="http://www.w3.org/1999/xlink">
<g id="graph0" class="graph" transform="scale(1 1) rotate(0) translate(4 92)">
<title>src/recipe/header/stack.hpp</title>
<!-- Node1 -->
<g id="Node000001" class="node">
<title>Node1</title>
<g id="a_Node000001"><a xlink:title="Undo Stack implementation for Recipe operations (C++ version).">
<polygon fill="#999999" stroke="#666666" points="283.75,-88 147,-88 147,-68 283.75,-68 283.75,-88"/>
<text xml:space="preserve" text-anchor="middle" x="215.38" y="-74.5" font-family="Helvetica,sans-Serif" font-size="10.00">src/recipe/header/stack.hpp</text>
</a>
</g>
</g>
<!-- Node2 -->
<g id="Node000002" class="node">
<title>Node2</title>
<g id="a_Node000002"><a xlink:href="header_2menu_8hpp.html" target="_top" xlink:title="Main application interface for the Recipe &amp; Nutrition Tracker (C++ version).">
<polygon fill="white" stroke="#666666" points="136.75,-26 0,-26 0,-6 136.75,-6 136.75,-26"/>
<text xml:space="preserve" text-anchor="middle" x="68.38" y="-12.5" font-family="Helvetica,sans-Serif" font-size="10.00">src/recipe/header/menu.hpp</text>
</a>
</g>
</g>
<!-- Node1&#45;&gt;Node2 -->
<g id="edge1_Node000001_Node000002" class="edge">
<title>Node1&#45;&gt;Node2</title>
<g id="a_edge1_Node000001_Node000002"><a xlink:title=" ">
<path fill="none" stroke="#63b8ff" d="M182,-63.38C154.25,-52.05 115.5,-36.23 91.18,-26.31"/>
<polygon fill="#63b8ff" stroke="#63b8ff" points="180.42,-66.51 191,-67.05 183.07,-60.03 180.42,-66.51"/>
</a>
</g>
</g>
<!-- Node3 -->
<g id="Node000003" class="node">
<title>Node3</title>
<g id="a_Node000003"><a xlink:href="stack_8cpp.html" target="_top" xlink:title="Stack implementation (C++ version).">
<polygon fill="white" stroke="#666666" points="275.88,-26 154.88,-26 154.88,-6 275.88,-6 275.88,-26"/>
<text xml:space="preserve" text-anchor="middle" x="215.38" y="-12.5" font-family="Helvetica,sans-Serif" font-size="10.00">src/recipe/src/stack.cpp</text>
</a>
</g>
</g>
<!-- Node1&#45;&gt;Node3 -->
<g id="edge2_Node000001_Node000003" class="edge">
<title>Node1&#45;&gt;Node3</title>
<g id="a_edge2_Node000001_Node000003"><a xlink:title=" ">
<path fill="none" stroke="#63b8ff" d="M215.38,-56.25C215.38,-45.97 215.38,-34.09 215.38,-26.11"/>
<polygon fill="#63b8ff" stroke="#63b8ff" points="211.88,-56.11 215.38,-66.11 218.88,-56.11 211.88,-56.11"/>
</a>
</g>
</g>
<!-- Node4 -->
<g id="Node000004" class="node">
<title>Node4</title>
<g id="a_Node000004"><a xlink:href="pp_2header_2menu_8hpp.html" target="_top" xlink:title="Main application interface for the Recipe &amp; Nutrition Tracker (C++ version).">
<polygon fill="white" stroke="#666666" points="400.75,-32 294,-32 294,0 400.75,0 400.75,-32"/>
<text xml:space="preserve" text-anchor="start" x="302" y="-18.5" font-family="Helvetica,sans-Serif" font-size="10.00">src/recipeapp/header</text>
<text xml:space="preserve" text-anchor="middle" x="347.38" y="-6.5" font-family="Helvetica,sans-Serif" font-size="10.00">/menu.hpp</text>
</a>
</g>
</g>
<!-- Node1&#45;&gt;Node4 -->
<g id="edge3_Node000001_Node000004" class="edge">
<title>Node1&#45;&gt;Node4</title>
<g id="a_edge3_Node000001_Node000004"><a xlink:title=" ">
<path fill="none" stroke="#63b8ff" d="M246.46,-62.87C266.53,-53.75 292.66,-41.87 313.3,-32.49"/>
<polygon fill="#63b8ff" stroke="#63b8ff" points="245.03,-59.67 237.38,-67 247.93,-66.05 245.03,-59.67"/>
</a>
</g>
</g>
</g>
</svg>
