<?xml version="1.0" encoding="UTF-8" standalone="no"?>
<!DOCTYPE svg PUBLIC "-//W3C//DTD SVG 1.1//EN"
 "http://www.w3.org/Graphics/SVG/1.1/DTD/svg11.dtd">
<!-- Generated by graphviz version 14.0.2 (20251019.1705)
 -->
<!-- Title: src/xor_linked_list.c Pages: 1 -->
<svg width="234pt" height="196pt"
 viewBox="0.00 0.00 234.00 196.00" xmlns="http://www.w3.org/2000/svg" xmlns:xlink="http://www.w3.org/1999/xlink">

<svg id="main" version="1.1" xmlns="http://www.w3.org/2000/svg" xmlns:xlink="http://www.w3.org/1999/xlink" xml:space="preserve">

<style type="text/css"><![CDATA[
.node, .edge {opacity: 0.7;}
.node.selected, .edge.selected {opacity: 1;}
.edge:hover path { stroke: red; }
.edge:hover polygon { stroke: red; fill: red; }
]]></style>
<script type="application/ecmascript" xlink:href="svg.min.js"/>
<svg id="graph" class="graph">
<g id="graph0" class="graph" transform="scale(1 1) rotate(0) translate(4 192)">
<title>src/xor_linked_list.c</title>
<!-- Node1 -->
<g id="Node000001" class="node">
<title>Node1</title>
<g id="a_Node000001"><a xlink:title="XOR Linked List implementation for memory&#45;efficient bidirectional traversal.">
<polygon fill="#999999" stroke="#666666" points="129.04,-188 26.04,-188 26.04,-168 129.04,-168 129.04,-188"/>
<text xml:space="preserve" text-anchor="middle" x="77.54" y="-174.5" font-family="Helvetica,sans-Serif" font-size="10.00">src/xor_linked_list.c</text>
</a>
</g>
</g>
<!-- Node2 -->
<g id="Node000002" class="node">
<title>Node2</title>
<g id="a_Node000002"><a xlink:title=" ">
<polygon fill="#e0e0e0" stroke="#999999" points="114.17,-20 68.92,-20 68.92,0 114.17,0 114.17,-20"/>
<text xml:space="preserve" text-anchor="middle" x="91.54" y="-6.5" font-family="Helvetica,sans-Serif" font-size="10.00">stdio.h</text>
</a>
</g>
</g>
<!-- Node1&#45;&gt;Node2 -->
<g id="edge1_Node000001_Node000002" class="edge">
<title>Node1&#45;&gt;Node2</title>
<g id="a_edge1_Node000001_Node000002"><a xlink:title=" ">
<path fill="none" stroke="#63b8ff" d="M64.43,-167.54C37.75,-147.1 -18.33,-97.32 6.54,-56 17.65,-37.55 39.14,-26.27 57.73,-19.62"/>
<polygon fill="#63b8ff" stroke="#63b8ff" points="58.64,-23 67.09,-16.6 56.49,-16.34 58.64,-23"/>
</a>
</g>
</g>
<!-- Node3 -->
<g id="Node000003" class="node">
<title>Node3</title>
<g id="a_Node000003"><a xlink:title=" ">
<polygon fill="#e0e0e0" stroke="#999999" points="221.29,-20 173.79,-20 173.79,0 221.29,0 221.29,-20"/>
<text xml:space="preserve" text-anchor="middle" x="197.54" y="-6.5" font-family="Helvetica,sans-Serif" font-size="10.00">stdlib.h</text>
</a>
</g>
</g>
<!-- Node1&#45;&gt;Node3 -->
<g id="edge2_Node000001_Node000003" class="edge">
<title>Node1&#45;&gt;Node3</title>
<g id="a_edge2_Node000001_Node000003"><a xlink:title=" ">
<path fill="none" stroke="#63b8ff" d="M129.54,-174.34C159.62,-169.81 195.24,-158.66 214.54,-132 236.44,-101.77 220.2,-55.93 207.91,-30.22"/>
<polygon fill="#63b8ff" stroke="#63b8ff" points="211.18,-28.93 203.53,-21.6 204.94,-32.1 211.18,-28.93"/>
</a>
</g>
</g>
<!-- Node4 -->
<g id="Node000004" class="node">
<title>Node4</title>
<g id="a_Node000004"><a xlink:title=" ">
<polygon fill="#e0e0e0" stroke="#999999" points="101.67,-132 53.42,-132 53.42,-112 101.67,-112 101.67,-132"/>
<text xml:space="preserve" text-anchor="middle" x="77.54" y="-118.5" font-family="Helvetica,sans-Serif" font-size="10.00">string.h</text>
</a>
</g>
</g>
<!-- Node1&#45;&gt;Node4 -->
<g id="edge3_Node000001_Node000004" class="edge">
<title>Node1&#45;&gt;Node4</title>
<g id="a_edge3_Node000001_Node000004"><a xlink:title=" ">
<path fill="none" stroke="#63b8ff" d="M77.54,-167.59C77.54,-161.01 77.54,-151.96 77.54,-143.73"/>
<polygon fill="#63b8ff" stroke="#63b8ff" points="81.04,-143.81 77.54,-133.81 74.04,-143.81 81.04,-143.81"/>
</a>
</g>
</g>
<!-- Node5 -->
<g id="Node000005" class="node">
<title>Node5</title>
<g id="a_Node000005"><a xlink:title=" ">
<polygon fill="#e0e0e0" stroke="#999999" points="63.67,-76 15.42,-76 15.42,-56 63.67,-56 63.67,-76"/>
<text xml:space="preserve" text-anchor="middle" x="39.54" y="-62.5" font-family="Helvetica,sans-Serif" font-size="10.00">stdint.h</text>
</a>
</g>
</g>
<!-- Node1&#45;&gt;Node5 -->
<g id="edge4_Node000001_Node000005" class="edge">
<title>Node1&#45;&gt;Node5</title>
<g id="a_edge4_Node000001_Node000005"><a xlink:title=" ">
<path fill="none" stroke="#63b8ff" d="M68.16,-167.59C60.33,-159.08 49.66,-145.81 44.54,-132 39.24,-117.68 38.14,-100.41 38.28,-87.27"/>
<polygon fill="#63b8ff" stroke="#63b8ff" points="41.76,-87.8 38.65,-77.68 34.77,-87.54 41.76,-87.8"/>
</a>
</g>
</g>
<!-- Node6 -->
<g id="Node000006" class="node">
<title>Node6</title>
<g id="a_Node000006"><a xlink:href="xor__linked__list_8h.html" target="_top" xlink:title="XOR Linked List implementation for memory&#45;efficient bidirectional traversal.">
<polygon fill="white" stroke="#666666" points="205.79,-132 119.29,-132 119.29,-112 205.79,-112 205.79,-132"/>
<text xml:space="preserve" text-anchor="middle" x="162.54" y="-118.5" font-family="Helvetica,sans-Serif" font-size="10.00">xor_linked_list.h</text>
</a>
</g>
</g>
<!-- Node1&#45;&gt;Node6 -->
<g id="edge5_Node000001_Node000006" class="edge">
<title>Node1&#45;&gt;Node6</title>
<g id="a_edge5_Node000001_Node000006"><a xlink:title=" ">
<path fill="none" stroke="#63b8ff" d="M92.35,-167.59C104.95,-159.59 123.3,-147.93 138.08,-138.54"/>
<polygon fill="#63b8ff" stroke="#63b8ff" points="139.78,-141.61 146.35,-133.29 136.03,-135.7 139.78,-141.61"/>
</a>
</g>
</g>
<!-- Node6&#45;&gt;Node2 -->
<g id="edge6_Node000006_Node000002" class="edge">
<title>Node6&#45;&gt;Node2</title>
<g id="a_edge6_Node000006_Node000002"><a xlink:title=" ">
<path fill="none" stroke="#63b8ff" d="M147.69,-111.67C135.98,-103.58 120.09,-90.87 110.54,-76 101.79,-62.37 96.95,-44.58 94.36,-31.05"/>
<polygon fill="#63b8ff" stroke="#63b8ff" points="97.87,-30.87 92.8,-21.57 90.97,-32.01 97.87,-30.87"/>
</a>
</g>
</g>
<!-- Node6&#45;&gt;Node3 -->
<g id="edge7_Node000006_Node000003" class="edge">
<title>Node6&#45;&gt;Node3</title>
<g id="a_edge7_Node000006_Node000003"><a xlink:title=" ">
<path fill="none" stroke="#63b8ff" d="M166.01,-111.75C169.36,-102.68 174.51,-88.46 178.54,-76 183.37,-61.08 188.33,-44.06 191.97,-31.18"/>
<polygon fill="#63b8ff" stroke="#63b8ff" points="195.28,-32.34 194.6,-21.77 188.54,-30.46 195.28,-32.34"/>
</a>
</g>
</g>
<!-- Node6&#45;&gt;Node5 -->
<g id="edge8_Node000006_Node000005" class="edge">
<title>Node6&#45;&gt;Node5</title>
<g id="a_edge8_Node000006_Node000005"><a xlink:title=" ">
<path fill="none" stroke="#63b8ff" d="M141.12,-111.59C121.92,-103.17 93.5,-90.69 71.6,-81.07"/>
<polygon fill="#63b8ff" stroke="#63b8ff" points="73.09,-77.9 62.52,-77.09 70.27,-84.31 73.09,-77.9"/>
</a>
</g>
</g>
<!-- Node7 -->
<g id="Node000007" class="node">
<title>Node7</title>
<g id="a_Node000007"><a xlink:href="recipe_8h.html" target="_top" xlink:title=" ">
<polygon fill="white" stroke="#666666" points="169.79,-76 119.29,-76 119.29,-56 169.79,-56 169.79,-76"/>
<text xml:space="preserve" text-anchor="middle" x="144.54" y="-62.5" font-family="Helvetica,sans-Serif" font-size="10.00">recipe.h</text>
</a>
</g>
</g>
<!-- Node6&#45;&gt;Node7 -->
<g id="edge9_Node000006_Node000007" class="edge">
<title>Node6&#45;&gt;Node7</title>
<g id="a_edge9_Node000006_Node000007"><a xlink:title=" ">
<path fill="none" stroke="#63b8ff" d="M159.41,-111.59C157.16,-104.86 154.06,-95.53 151.26,-87.15"/>
<polygon fill="#63b8ff" stroke="#63b8ff" points="154.61,-86.11 148.12,-77.73 147.96,-88.33 154.61,-86.11"/>
</a>
</g>
</g>
<!-- Node7&#45;&gt;Node2 -->
<g id="edge10_Node000007_Node000002" class="edge">
<title>Node7&#45;&gt;Node2</title>
<g id="a_edge10_Node000007_Node000002"><a xlink:title=" ">
<path fill="none" stroke="#63b8ff" d="M135.31,-55.59C127.94,-48.08 117.41,-37.35 108.53,-28.3"/>
<polygon fill="#63b8ff" stroke="#63b8ff" points="111.23,-26.06 101.73,-21.38 106.24,-30.97 111.23,-26.06"/>
</a>
</g>
</g>
<!-- Node7&#45;&gt;Node3 -->
<g id="edge11_Node000007_Node000003" class="edge">
<title>Node7&#45;&gt;Node3</title>
<g id="a_edge11_Node000007_Node000003"><a xlink:title=" ">
<path fill="none" stroke="#63b8ff" d="M153.78,-55.59C161.15,-48.08 171.68,-37.35 180.56,-28.3"/>
<polygon fill="#63b8ff" stroke="#63b8ff" points="182.85,-30.97 187.36,-21.38 177.86,-26.06 182.85,-30.97"/>
</a>
</g>
</g>
</g>
</svg>
</svg>

<style type='text/css'>
<![CDATA[
[data-mouse-over-selected='false'] { opacity: 0.7; }
[data-mouse-over-selected='true']  { opacity: 1.0; }
]]>
</style>
<script type="application/ecmascript"><![CDATA[
document.addEventListener('DOMContentLoaded', (event) => {
  highlightEdges();
  highlightAdjacentNodes();
});
]]></script>
</svg>
