<?xml version="1.0" encoding="UTF-8" standalone="no"?>
<!DOCTYPE svg PUBLIC "-//W3C//DTD SVG 1.1//EN"
 "http://www.w3.org/Graphics/SVG/1.1/DTD/svg11.dtd">
<!-- Generated by graphviz version 14.0.2 (20251019.1705)
 -->
<!-- Title: include/sparse_matrix.h Pages: 1 -->
<svg width="240pt" height="140pt"
 viewBox="0.00 0.00 240.00 140.00" xmlns="http://www.w3.org/2000/svg" xmlns:xlink="http://www.w3.org/1999/xlink">
<g id="graph0" class="graph" transform="scale(1 1) rotate(0) translate(4 136)">
<title>include/sparse_matrix.h</title>
<!-- Node1 -->
<g id="Node000001" class="node">
<title>Node1</title>
<g id="a_Node000001"><a xlink:title=" ">
<polygon fill="#999999" stroke="#666666" points="185.62,-132 66.12,-132 66.12,-112 185.62,-112 185.62,-132"/>
<text xml:space="preserve" text-anchor="middle" x="125.88" y="-118.5" font-family="Helvetica,sans-Serif" font-size="10.00">include/sparse_matrix.h</text>
</a>
</g>
</g>
<!-- Node2 -->
<g id="Node000002" class="node">
<title>Node2</title>
<g id="a_Node000002"><a xlink:href="$menu_8h.html" xlink:title=" ">
<polygon fill="white" stroke="#666666" points="111.88,-76 29.88,-76 29.88,-56 111.88,-56 111.88,-76"/>
<text xml:space="preserve" text-anchor="middle" x="70.88" y="-62.5" font-family="Helvetica,sans-Serif" font-size="10.00">include/menu.h</text>
</a>
</g>
</g>
<!-- Node1&#45;&gt;Node2 -->
<g id="edge9_Node000001_Node000002" class="edge">
<title>Node1&#45;&gt;Node2</title>
<g id="a_edge9_Node000001_Node000002"><a xlink:title=" ">
<path fill="none" stroke="#63b8ff" d="M108.12,-103.57C98.88,-94.5 87.96,-83.78 80.35,-76.3"/>
<polygon fill="#63b8ff" stroke="#63b8ff" points="105.63,-106.03 115.21,-110.53 110.53,-101.03 105.63,-106.03"/>
</a>
</g>
</g>
<!-- Node5 -->
<g id="Node000005" class="node">
<title>Node5</title>
<g id="a_Node000005"><a xlink:href="$sparse__matrix_8c.html" xlink:title="Sparse Matrix implementation for ingredient&#45;recipe relationships.">
<polygon fill="white" stroke="#666666" points="232,-76 129.75,-76 129.75,-56 232,-56 232,-76"/>
<text xml:space="preserve" text-anchor="middle" x="180.88" y="-62.5" font-family="Helvetica,sans-Serif" font-size="10.00">src/sparse_matrix.c</text>
</a>
</g>
</g>
<!-- Node1&#45;&gt;Node5 -->
<g id="edge12_Node000001_Node000005" class="edge">
<title>Node1&#45;&gt;Node5</title>
<g id="a_edge12_Node000001_Node000005"><a xlink:title=" ">
<path fill="none" stroke="#63b8ff" d="M143.63,-103.57C152.87,-94.5 163.79,-83.78 171.4,-76.3"/>
<polygon fill="#63b8ff" stroke="#63b8ff" points="141.22,-101.03 136.54,-110.53 146.12,-106.03 141.22,-101.03"/>
</a>
</g>
</g>
<!-- Node3 -->
<g id="Node000003" class="node">
<title>Node3</title>
<g id="a_Node000003"><a xlink:href="$main_8c.html" xlink:title="Main entry point for Recipe and Nutrition Tracker.">
<polygon fill="white" stroke="#666666" points="61.75,-20 0,-20 0,0 61.75,0 61.75,-20"/>
<text xml:space="preserve" text-anchor="middle" x="30.88" y="-6.5" font-family="Helvetica,sans-Serif" font-size="10.00">src/main.c</text>
</a>
</g>
</g>
<!-- Node2&#45;&gt;Node3 -->
<g id="edge10_Node000002_Node000003" class="edge">
<title>Node2&#45;&gt;Node3</title>
<g id="a_edge10_Node000002_Node000003"><a xlink:title=" ">
<path fill="none" stroke="#63b8ff" d="M57.12,-46.44C50.59,-37.62 43.07,-27.47 37.76,-20.3"/>
<polygon fill="#63b8ff" stroke="#63b8ff" points="54.24,-48.43 63.01,-54.38 59.87,-44.26 54.24,-48.43"/>
</a>
</g>
</g>
<!-- Node4 -->
<g id="Node000004" class="node">
<title>Node4</title>
<g id="a_Node000004"><a xlink:href="$menu_8c.html" xlink:title="Menu system for Recipe &amp; Nutrition Tracker.">
<polygon fill="white" stroke="#666666" points="144.25,-20 79.5,-20 79.5,0 144.25,0 144.25,-20"/>
<text xml:space="preserve" text-anchor="middle" x="111.88" y="-6.5" font-family="Helvetica,sans-Serif" font-size="10.00">src/menu.c</text>
</a>
</g>
</g>
<!-- Node2&#45;&gt;Node4 -->
<g id="edge11_Node000002_Node000004" class="edge">
<title>Node2&#45;&gt;Node4</title>
<g id="a_edge11_Node000002_Node000004"><a xlink:title=" ">
<path fill="none" stroke="#63b8ff" d="M84.97,-46.44C91.66,-37.62 99.37,-27.47 104.82,-20.3"/>
<polygon fill="#63b8ff" stroke="#63b8ff" points="82.19,-44.31 78.93,-54.39 87.77,-48.54 82.19,-44.31"/>
</a>
</g>
</g>
</g>
</svg>
