<?xml version="1.0" encoding="UTF-8" standalone="no"?>
<!DOCTYPE svg PUBLIC "-//W3C//DTD SVG 1.1//EN"
 "http://www.w3.org/Graphics/SVG/1.1/DTD/svg11.dtd">
<!-- Generated by graphviz version 14.0.2 (20251019.1705)
 -->
<!-- Title: src/recipe/src/stack.cpp Pages: 1 -->
<svg width="291pt" height="140pt"
 viewBox="0.00 0.00 291.00 140.00" xmlns="http://www.w3.org/2000/svg" xmlns:xlink="http://www.w3.org/1999/xlink">
<g id="graph0" class="graph" transform="scale(1 1) rotate(0) translate(4 136)">
<title>src/recipe/src/stack.cpp</title>
<!-- Node1 -->
<g id="Node000001" class="node">
<title>Node1</title>
<g id="a_Node000001"><a xlink:title="Stack implementation (C++ version).">
<polygon fill="#999999" stroke="#666666" points="185.25,-132 64.25,-132 64.25,-112 185.25,-112 185.25,-132"/>
<text xml:space="preserve" text-anchor="middle" x="124.75" y="-118.5" font-family="Helvetica,sans-Serif" font-size="10.00">src/recipe/src/stack.cpp</text>
</a>
</g>
</g>
<!-- Node2 -->
<g id="Node000002" class="node">
<title>Node2</title>
<g id="a_Node000002"><a xlink:title=" ">
<polygon fill="#e0e0e0" stroke="#999999" points="53.5,-76 0,-76 0,-56 53.5,-56 53.5,-76"/>
<text xml:space="preserve" text-anchor="middle" x="26.75" y="-62.5" font-family="Helvetica,sans-Serif" font-size="10.00">iostream</text>
</a>
</g>
</g>
<!-- Node1&#45;&gt;Node2 -->
<g id="edge13_Node000001_Node000002" class="edge">
<title>Node1&#45;&gt;Node2</title>
<g id="a_edge13_Node000001_Node000002"><a xlink:title=" ">
<path fill="none" stroke="#63b8ff" d="M107.68,-111.59C92.87,-103.44 71.18,-91.48 53.98,-82"/>
<polygon fill="#63b8ff" stroke="#63b8ff" points="55.73,-78.97 45.28,-77.21 52.35,-85.1 55.73,-78.97"/>
</a>
</g>
</g>
<!-- Node3 -->
<g id="Node000003" class="node">
<title>Node3</title>
<g id="a_Node000003"><a xlink:title=" ">
<polygon fill="#e0e0e0" stroke="#999999" points="114.25,-76 71.25,-76 71.25,-56 114.25,-56 114.25,-76"/>
<text xml:space="preserve" text-anchor="middle" x="92.75" y="-62.5" font-family="Helvetica,sans-Serif" font-size="10.00">vector</text>
</a>
</g>
</g>
<!-- Node1&#45;&gt;Node3 -->
<g id="edge14_Node000001_Node000003" class="edge">
<title>Node1&#45;&gt;Node3</title>
<g id="a_edge14_Node000001_Node000003"><a xlink:title=" ">
<path fill="none" stroke="#63b8ff" d="M119.18,-111.59C115,-104.55 109.15,-94.67 104.01,-86"/>
<polygon fill="#63b8ff" stroke="#63b8ff" points="107.14,-84.42 99.03,-77.6 101.12,-87.99 107.14,-84.42"/>
</a>
</g>
</g>
<!-- Node4 -->
<g id="Node000004" class="node">
<title>Node4</title>
<g id="a_Node000004"><a xlink:title=" ">
<polygon fill="#e0e0e0" stroke="#999999" points="183.38,-76 132.12,-76 132.12,-56 183.38,-56 183.38,-76"/>
<text xml:space="preserve" text-anchor="middle" x="157.75" y="-62.5" font-family="Helvetica,sans-Serif" font-size="10.00">memory</text>
</a>
</g>
</g>
<!-- Node1&#45;&gt;Node4 -->
<g id="edge15_Node000001_Node000004" class="edge">
<title>Node1&#45;&gt;Node4</title>
<g id="a_edge15_Node000001_Node000004"><a xlink:title=" ">
<path fill="none" stroke="#63b8ff" d="M130.5,-111.59C134.8,-104.55 140.84,-94.67 146.14,-86"/>
<polygon fill="#63b8ff" stroke="#63b8ff" points="149.05,-87.95 151.28,-77.59 143.08,-84.3 149.05,-87.95"/>
</a>
</g>
</g>
<!-- Node5 -->
<g id="Node000005" class="node">
<title>Node5</title>
<g id="a_Node000005"><a xlink:href="$recipe_8h.html" xlink:title=" ">
<polygon fill="white" stroke="#666666" points="252,-76 201.5,-76 201.5,-56 252,-56 252,-76"/>
<text xml:space="preserve" text-anchor="middle" x="226.75" y="-62.5" font-family="Helvetica,sans-Serif" font-size="10.00">recipe.h</text>
</a>
</g>
</g>
<!-- Node1&#45;&gt;Node5 -->
<g id="edge16_Node000001_Node000005" class="edge">
<title>Node1&#45;&gt;Node5</title>
<g id="a_edge16_Node000001_Node000005"><a xlink:title=" ">
<path fill="none" stroke="#63b8ff" d="M142.52,-111.59C158.07,-103.36 180.93,-91.26 198.91,-81.74"/>
<polygon fill="#63b8ff" stroke="#63b8ff" points="200.31,-84.96 207.51,-77.19 197.03,-78.77 200.31,-84.96"/>
</a>
</g>
</g>
<!-- Node6 -->
<g id="Node000006" class="node">
<title>Node6</title>
<g id="a_Node000006"><a xlink:title=" ">
<polygon fill="#e0e0e0" stroke="#999999" points="217.38,-20 172.12,-20 172.12,0 217.38,0 217.38,-20"/>
<text xml:space="preserve" text-anchor="middle" x="194.75" y="-6.5" font-family="Helvetica,sans-Serif" font-size="10.00">stdio.h</text>
</a>
</g>
</g>
<!-- Node5&#45;&gt;Node6 -->
<g id="edge17_Node000005_Node000006" class="edge">
<title>Node5&#45;&gt;Node6</title>
<g id="a_edge17_Node000005_Node000006"><a xlink:title=" ">
<path fill="none" stroke="#63b8ff" d="M221.18,-55.59C217,-48.55 211.15,-38.67 206.01,-30"/>
<polygon fill="#63b8ff" stroke="#63b8ff" points="209.14,-28.42 201.03,-21.6 203.12,-31.99 209.14,-28.42"/>
</a>
</g>
</g>
<!-- Node7 -->
<g id="Node000007" class="node">
<title>Node7</title>
<g id="a_Node000007"><a xlink:title=" ">
<polygon fill="#e0e0e0" stroke="#999999" points="282.5,-20 235,-20 235,0 282.5,0 282.5,-20"/>
<text xml:space="preserve" text-anchor="middle" x="258.75" y="-6.5" font-family="Helvetica,sans-Serif" font-size="10.00">stdlib.h</text>
</a>
</g>
</g>
<!-- Node5&#45;&gt;Node7 -->
<g id="edge18_Node000005_Node000007" class="edge">
<title>Node5&#45;&gt;Node7</title>
<g id="a_edge18_Node000005_Node000007"><a xlink:title=" ">
<path fill="none" stroke="#63b8ff" d="M232.32,-55.59C236.5,-48.55 242.35,-38.67 247.49,-30"/>
<polygon fill="#63b8ff" stroke="#63b8ff" points="250.38,-31.99 252.47,-21.6 244.36,-28.42 250.38,-31.99"/>
</a>
</g>
</g>
</g>
</svg>
